<svg width="144" height="50" viewBox="0 0 144 50" fill="none" xmlns="http://www.w3.org/2000/svg">
<mask id="mask0_132_46" style="mask-type:alpha" maskUnits="userSpaceOnUse" x="0" y="0" width="144" height="50">
<rect x="0.734375" width="143" height="50" fill="#D9D9D9"/>
</mask>
<g mask="url(#mask0_132_46)">
<path d="M61.3182 41.7168L61.1247 42.1812C62.1149 41.7168 63.1848 41.2638 64.3343 40.7767C65.0969 40.5275 65.5066 40.1764 65.7798 39.9045C65.8595 39.8479 65.8708 39.746 65.9733 39.7233L66.0985 39.678C66.1326 39.6667 66.2464 39.644 65.9846 39.712C65.8139 39.7573 65.6432 39.8026 65.4497 39.8366L65.1766 39.8819L65.0058 39.9272C64.7782 39.9838 64.5278 40.0291 64.2547 40.0405C64.2319 40.0405 64.2547 40.0405 64.3457 40.0291L64.4254 40.0178C64.4368 40.0178 64.4709 40.0178 64.4595 40.0178L64.2774 40.0405C64.027 40.0744 63.788 40.1084 63.549 40.1651C63.071 40.267 62.6043 40.4142 62.2629 40.6748C61.9101 40.9353 61.4889 41.2524 61.3182 41.7168Z" fill="url(#paint0_linear_132_46)"/>
<path d="M48.7188 63.9288C49.3107 63.9061 49.8911 63.8722 50.4602 63.8155C50.483 63.7249 50.5057 63.6343 50.5513 63.521C49.9367 63.6683 49.3221 63.7929 48.7188 63.9288Z" fill="url(#paint1_linear_132_46)"/>
<path d="M58.9167 50.0534C58.6777 49.2718 58.2111 48.8981 57.7103 48.5696C57.2209 48.2298 56.6632 47.9919 56.2079 47.5955C55.7185 48.6942 55.0811 49.8608 54.1365 51.0728C53.2146 52.4434 52.6227 53.8252 52.2357 55.3544C52.9414 55.5583 53.8633 55.8867 54.2958 56.4531C54.3982 55.8074 54.4096 55.8188 53.7495 55.7168C54.4096 55.8301 55.6843 55.9887 55.6843 55.9887C56.1055 55.3884 56.0941 54.5841 55.8437 53.8479C55.6047 53.055 55.138 52.3074 54.5917 51.8657C55.6388 52.0696 57.0501 52.3867 58.1883 52.4434C58.359 51.9337 58.5411 51.4353 58.7118 50.9369C58.6208 50.5744 58.4842 50.2346 58.3362 49.9854L58.9167 50.0534Z" fill="url(#paint2_linear_132_46)"/>
<path d="M64.7896 40.7201L64.562 40.5615C64.414 40.4709 64.2547 40.3689 64.0612 40.2896L63.9132 40.233L63.8449 40.199L63.7083 40.1424C63.788 40.1764 63.8335 40.199 63.9246 40.2443C64.0839 40.3123 64.2433 40.3803 64.3799 40.4595C64.5847 40.5728 64.653 40.6521 65.0286 40.8673L65.1424 40.9353C65.0969 40.9013 65.0286 40.856 64.7668 40.7087L64.8124 40.7314C65.0514 40.8786 65.2904 41.0259 65.5066 41.1958L65.3245 41.0599C65.8822 41.4903 66.8155 42.2945 66.9407 42.4644C66.8496 42.3738 66.5423 42.0453 66.0643 41.6715C65.6546 41.3317 65.2904 41.0032 64.7896 40.7201Z" fill="url(#paint3_linear_132_46)"/>
<path d="M75.4882 57.5631C75.0671 56.2379 74.6232 54.9126 74.2249 53.5421C74.2476 53.9272 74.1225 53.6327 73.9403 53.3382C73.7355 53.0324 73.6217 52.7492 73.7469 53.1003C71.0381 46.2816 68.5455 43.9029 65.3131 40.89C63.5262 39.3948 62.0239 38.7152 60.4077 38.6926C58.8143 38.6586 57.3233 39.4288 55.6161 40.6634C56.3331 41.0485 57.5282 40.8333 57.8013 41.4903C58.2111 41.1958 58.4728 40.9466 58.5525 40.7314C58.6322 40.5049 58.5639 40.3123 58.3818 40.0858C58.6436 40.4142 58.8257 40.7314 58.9281 41.1052C59.0305 40.9466 59.2695 40.8333 59.702 40.7994C59.9752 40.822 60.1231 40.856 60.2028 40.924C60.9995 40.5162 61.7621 40.233 62.6271 40.1311C62.8433 40.1084 63.071 40.0971 63.2872 40.0971H63.697H63.64L63.5035 40.0858C63.4466 40.0744 63.401 40.0744 63.4352 40.0744C63.5035 40.0971 63.3441 40.0631 63.4693 40.0858C63.5604 40.1084 63.64 40.1311 63.7083 40.165C63.7994 40.2217 64.3571 40.4369 64.562 40.6068L64.7327 40.7314L64.9945 40.89C65.1538 40.9919 65.279 41.0825 65.3928 41.1618C65.8139 41.4903 65.9277 41.6262 65.8936 41.5809C67.4187 42.7816 69.2398 45.0356 70.3096 46.7573C72.199 49.6116 73.5989 52.5566 74.6574 55.3657C74.8509 55.8188 75.0216 56.2718 75.1809 56.7136C75.2492 56.9288 75.3289 57.144 75.3972 57.3592L75.42 57.4385C75.4313 57.4612 75.4086 57.4159 75.4086 57.4045L75.363 57.2913L75.2834 57.0534L75.4882 57.5631Z" fill="url(#paint4_linear_132_46)"/>
<path d="M118.101 25.157C116.826 26.5841 115.608 28.1586 114.425 29.6197C114.117 29.9822 113.776 30.3107 113.457 30.6278L112.968 31.0922L112.717 31.3074L112.592 31.4094L112.842 31.2282C113.48 30.7298 113.992 30.2994 114.675 29.8463C115.005 29.6197 115.346 29.4045 115.699 29.2006C115.995 29.0081 116.223 28.8382 116.507 28.6683C116.78 28.4984 117.076 28.3398 117.372 28.1926C117.509 28.1246 117.714 28.0453 117.805 27.9887L118.124 27.8188C118.522 27.6036 119.159 27.4337 119.353 27.3544C119.501 27.3091 119.66 27.2751 119.831 27.2524C119.922 27.2298 119.956 27.2184 120.024 27.2184H120.138C120.184 27.2184 120.104 27.2184 120.104 27.2184C120.07 27.2184 120.036 27.2071 120.013 27.2071C119.888 27.1958 119.717 27.1731 119.58 27.1392L119.364 27.0712C119.228 27.0372 119.08 27.0032 118.943 26.9579C118.647 26.8673 118.465 26.7767 118.101 26.6408C117.668 26.4822 117.236 26.301 116.826 26.0858C116.268 25.7913 115.711 25.5081 115.164 25.2249C114.846 25.055 114.538 24.8738 114.231 24.6812L113.776 24.3981C113.628 24.2961 113.503 24.2168 113.207 24.0469C112.205 23.4579 111.226 22.8463 110.27 22.1893C109.792 21.8608 109.314 21.5324 108.848 21.1812L106.366 19.4935L105.729 19.0518L105.718 19.0405L105.649 19.0065L105.399 19.1311C105.353 19.1537 105.319 19.165 105.274 19.199L105.092 19.335L104.727 19.5955L103.145 20.7508L108.483 24.0243C108.757 24.1942 109.03 24.3867 109.291 24.5906C109.553 24.7945 109.849 25.0663 109.997 25.1796C110.179 25.3269 110.361 25.4968 110.532 25.678L110.657 25.8139L110.737 25.8819L110.896 26.0405L111.044 26.2217L111.135 26.3576C111.169 26.4029 111.215 26.4482 111.249 26.5162C111.283 26.5728 111.26 26.5502 111.26 26.5275L111.238 26.4935C111.226 26.4709 111.238 26.4935 111.158 26.3463C111.101 26.2443 111.067 26.1424 111.033 26.0405C110.953 25.8479 110.885 25.6553 110.828 25.4628L110.623 24.7265L110.532 24.3074C110.509 24.1828 110.487 24.0243 110.441 23.8204C110.361 23.4466 110.316 23.0615 110.282 22.699C110.247 22.3252 110.168 21.7816 110.145 21.3285L110.088 19.788C110.065 19.2104 110.088 18.6667 110.122 18.0777C110.111 18.2929 110.1 18.5081 110.1 18.7233C110.1 18.7346 110.1 18.7346 110.1 18.712V18.644V18.7233C110.088 19.1537 110.088 19.5841 110.077 20.0032C109.986 21.657 109.792 23.2201 109.098 24.2735C108.745 24.8058 108.37 24.3414 108.017 23.8657C107.687 23.4126 107.379 22.9256 107.061 23.5259C105.843 24.6019 104.75 25.7913 103.578 26.7994C102.406 27.7961 101.142 28.623 99.3667 28.8042C99.4692 29.9822 98.6724 32.2136 99.2529 32.5874C99.6854 33.9579 100.414 35.0793 101.472 35.6116C102.519 36.144 103.931 36.0761 105.501 35.034C105.945 34.7282 106.321 35.657 106.423 36.733C106.514 37.8091 106.264 39.0777 105.171 39.3948C106.321 40.1084 107.459 40.1084 108.472 39.9045C109.496 39.6893 110.407 39.3042 111.351 39.1909C112.683 38.8964 113.48 39.021 114.094 39.5194C114.709 40.0291 115.107 40.9126 115.403 41.9887C115.699 43.0647 115.881 44.322 116.2 45.5227C116.519 46.7233 116.963 47.9013 118.021 48.6262C118.841 49.521 119.842 50.0421 120.98 50.1214C123.04 48.0939 124.52 45.5906 125.362 43.2006C126.25 40.788 126.387 38.4094 126.318 36.3252L126.056 36.6764C125.852 35.1473 125.749 33.5502 125.613 31.9531C125.556 31.3301 126.159 30.9903 126.773 30.424C127.388 29.9142 127.98 29.076 127.695 28.2718C127.593 26.8333 126.819 25.3948 125.84 24.6472C124.873 23.843 123.78 23.5485 122.779 23.4693C120.764 23.3107 119 24.0356 118.101 25.157Z" fill="url(#paint5_linear_132_46)"/>
<path d="M98.6155 11.7006C99.9244 11.1343 101.085 10.8964 102.144 10.8511C101.461 8.97087 100.733 7.05663 99.7196 5.06311C98.9911 5.56149 98.1489 6.00324 97.4091 6.51294C98.5017 7.70227 98.9115 9.31068 98.6155 11.7006Z" fill="url(#paint6_linear_132_46)"/>
<path d="M112.41 53.6667C112.695 51.8091 112.148 50.8689 111.386 49.9968C110.646 49.1019 109.644 48.2977 108.961 46.7346C107.186 47.822 105.649 47.9806 104.534 47.4256C103.407 46.8705 102.667 45.5793 102.326 43.6537C101.973 44.5146 100.994 43.5631 100.448 43.801C100.812 42.9515 100.311 41.1618 101.393 40.6634C100.3 41.1618 99.8789 39.3495 98.9456 40.4142C98.0465 38.8285 100.801 38.2961 100.425 36.4951C97.3863 38.1942 95.5311 36.7217 95.11 34.4676C94.6548 32.2023 95.5198 29.1214 97.2042 27.2298C98.6383 25.4401 100.118 24.8058 101.871 22.1327C103.623 19.4595 104.557 21.8382 105.467 22.9822C105.74 21.0113 104.5 19.5502 106.059 17.8964C107.311 17.0469 108.506 15.7217 109.348 13.9887C108.62 14.0113 107.334 14.3398 106.036 14.3851C104.75 14.4304 103.475 14.2039 103.032 13.3091C102.736 12.4822 102.44 11.6553 102.144 10.8285C101.085 10.8738 99.9244 11.123 98.6155 11.678C98.9115 9.28803 98.5131 7.67961 97.4205 6.47896C96.4872 7.07929 95.5653 7.71359 94.9165 8.54045C94.2678 9.22006 94.0515 9.84304 94.1198 10.4547C94.1881 11.0777 94.6092 11.712 94.9848 12.335C95.8157 13.5922 96.7262 14.8495 96.5782 16.4466C94.1085 16.3333 91.7638 17.5453 90.1818 19.5502C88.6339 21.5663 87.6779 24.2621 87.4161 26.8786C87.2112 30.1068 87.3478 32.5081 88.1104 35.3625C88.7364 36.3932 89.92 37.2654 91.5476 36.7217C91.0127 36.9029 89.3851 37.4353 89.4306 38.0356C90.7964 40.7087 90.1704 44.7864 93.8694 44.911C93.4142 45.7152 93.5508 46.3382 92.3785 46.7006C94.7117 45.9531 91.8549 50.178 94.2792 49.4304C94.3019 50.767 93.8353 52.6133 93.7215 54.199C93.6077 55.7735 93.8808 57.0987 95.5084 57.3479C96.4758 57.3592 97.1473 57.5858 97.7392 57.8916C100.539 57.0194 103.396 56.4417 107.083 56.2945C109.724 56.1926 112.581 55.4676 115.244 54.165C113.799 54.4369 112.649 54.4256 112.41 53.6667Z" fill="url(#paint7_linear_132_46)"/>
<path d="M118.032 48.6036C116.974 47.8786 116.53 46.6893 116.211 45.5C115.904 44.2994 115.722 43.0307 115.415 41.966C115.119 40.89 114.72 40.0065 114.106 39.4968C113.491 38.9984 112.683 38.8738 111.363 39.1683C110.418 39.2816 109.508 39.678 108.483 39.8819C107.47 40.0858 106.332 40.0858 105.183 39.3722C106.275 39.0663 106.526 37.7864 106.435 36.7104C106.344 35.6343 105.957 34.7055 105.513 35.0113C103.942 36.0534 102.531 36.1214 101.484 35.589C100.425 35.068 99.6968 33.9353 99.2643 32.5647C98.6838 32.1909 99.4805 29.9595 99.3781 28.7816C101.154 28.6117 102.417 27.7735 103.589 26.7767C104.75 25.7686 105.854 24.5793 107.072 23.5032C107.379 22.9029 107.698 23.3786 108.028 23.843C108.37 24.3188 108.757 24.7832 109.109 24.2508C109.804 23.1974 109.997 21.6343 110.088 19.9806C110.1 19.5502 110.1 19.1311 110.111 18.7006V18.6214V18.6893C110.111 18.7006 110.111 18.7006 110.111 18.7006C110.122 18.4854 110.134 18.2702 110.134 18.055C110.134 17.5 110.156 16.9337 110.202 16.39L110.35 14.657C110.327 14.5777 110.361 14.5437 110.27 14.4644C110.213 14.3964 110.134 14.3398 110.008 14.2492C109.906 14.1812 109.747 14.0906 109.576 14C109.508 13.9887 109.451 14.0113 109.36 14C108.517 15.7217 107.322 17.0583 106.07 17.9078C104.511 19.5615 105.752 21.0227 105.479 22.9935C104.568 21.8495 103.635 19.4709 101.882 22.144C100.129 24.8172 98.6497 25.4401 97.2156 27.2411C95.5198 29.1214 94.6661 32.2023 95.1214 34.479C95.5425 36.733 97.3977 38.2055 100.437 36.5065C100.812 38.3188 98.0465 38.8511 98.957 40.4256C99.8903 39.3608 100.311 41.1845 101.404 40.6748C100.323 41.1731 100.824 42.9628 100.459 43.8123C101.006 43.5744 101.984 44.5259 102.337 43.665C102.679 45.5906 103.419 46.8706 104.545 47.4369C105.661 47.9919 107.197 47.8333 108.973 46.746C109.656 48.2977 110.657 49.1133 111.397 50.0081C112.16 50.8689 112.706 51.8204 112.421 53.678C112.66 54.4256 113.81 54.4482 115.244 54.2104C117.327 53.2023 119.353 51.7864 121.003 50.11C119.854 50.0194 118.852 49.4984 118.032 48.6036Z" fill="url(#paint8_linear_132_46)"/>
<path d="M95.497 57.3819C93.8694 57.1327 93.5963 55.8074 93.7101 54.233C93.8239 52.6473 94.2906 50.801 94.2678 49.4644C91.8435 50.212 94.7003 45.9871 92.3671 46.7346C93.5394 46.3608 93.4028 45.7492 93.8581 44.945C90.1591 44.8317 90.785 40.754 89.4193 38.0696C89.3624 37.4579 90.9899 36.9256 91.5362 36.7557C89.9087 37.2994 88.725 36.4272 88.099 35.3964C87.3364 32.5421 87.1999 30.1408 87.4047 26.9126C87.6665 24.2848 88.6225 21.6003 90.1704 19.5841C91.7638 17.5906 94.0971 16.3673 96.5669 16.4806C96.7148 14.8835 95.8157 13.6262 94.9734 12.3689C94.5865 11.746 94.1767 11.1117 94.1085 10.4887C94.0402 9.87702 94.2564 9.25405 94.9052 8.57443C95.5653 7.74757 96.4758 7.10194 97.4091 6.51294C97.079 6.15049 96.6465 5.81068 96.2027 5.51618C96.0092 5.38026 95.8612 5.28964 95.6677 5.1877L95.3946 5.05178L95.1897 4.96116L94.7572 4.75728C93.5735 4.28155 92.2988 3.81715 91.081 3.54531C90.455 3.39806 89.829 3.26214 89.203 3.13754C88.5429 3.00162 88.0648 2.97896 87.4844 2.89968C82.9773 2.43527 79.4832 3.08091 76.5353 3.54531C76.3646 4.87055 76.5467 5.92395 77.4231 6.39968C78.254 6.98867 78.9027 7.60032 79.3921 8.2233C79.9043 8.85761 80.2913 9.52589 80.553 10.1942C81.0993 11.5307 81.2359 12.9126 81.3156 14.3058C81.4863 17.1262 81.5091 19.9353 82.9659 22.9256C83.1025 23.2314 83.3415 23.5259 83.5919 23.8317C83.8651 24.1489 84.1724 24.466 84.4569 24.7605C85.0374 25.3269 85.504 25.9385 85.5837 26.233C85.6633 27.2184 85.3788 28.1019 85.0943 28.9741C84.787 29.8463 84.3886 30.6958 83.9903 31.534C83.1936 33.2217 82.4082 34.9207 82.3172 36.8236C82.1009 37.2314 82.6017 37.322 83.1139 37.4919C83.6488 37.6731 84.1837 37.9337 83.9675 38.6246C83.6033 41.2184 81.6229 44.3333 82.818 45.7945C84.3886 47.9919 85.0715 50.6084 85.3788 53.3722C85.6861 56.1359 85.6064 59.0696 85.8455 61.9806C89.7266 61.0518 93.5963 59.2055 97.7164 57.9142C97.1359 57.6197 96.4644 57.4045 95.497 57.3819Z" fill="url(#paint9_linear_132_46)"/>
<path d="M18.7057 24.5793C17.8407 27.5696 17.3399 30.6845 16.9985 33.6408C16.6798 36.5858 16.7026 39.3495 16.7936 42.0793C16.9302 40.4935 17.1578 38.9644 17.431 37.5146C17.7041 36.0647 18.0456 34.6942 18.4895 33.335C19.3658 30.6618 20.3902 28.2265 21.5966 26.2443C23.9981 22.0761 26.6614 19.5615 29.1881 17.6472C30.4059 16.843 31.6124 16.1861 32.7847 15.665C33.3651 15.4045 33.957 15.1667 34.5033 14.9854C35.0382 14.8382 35.5732 14.7249 36.0967 14.623C38.1795 14.2492 40.1941 14.1359 41.9468 14.5097C42.2427 14.5777 42.7094 14.4191 43.3012 14.1133C43.8931 13.8074 44.6329 13.3317 45.3727 12.9126C46.1238 12.4822 47.023 11.9159 47.8994 11.4515C48.753 11.0097 49.6749 10.5453 50.5968 10.1375C54.2275 8.59709 57.6192 8.2233 59.1102 10.2735C59.3264 12.1424 57.8127 13.8527 55.6616 15.5744C57.1526 15.665 58.4045 16.0388 59.5427 16.4806C60.6581 16.9676 61.6369 17.5566 62.5247 18.2362C64.266 19.6181 65.6318 21.2492 66.8383 22.9709C69.2284 26.3689 71.095 29.9482 73.3713 32.4628C75.6476 35 77.2865 38.6133 77.7076 42.589C77.8101 43.5858 77.8442 44.6052 77.8328 45.6246C77.8101 46.6553 77.6849 47.6974 77.5483 48.7395L77.4914 49.1246C77.48 49.2379 77.4914 49.1473 77.4914 49.1133L77.5142 49L77.5824 48.5696L77.719 47.8447L77.8556 46.9725C77.867 46.8252 78.2881 44.4919 79.1872 41.5809C79.4604 40.8107 79.7108 40.1651 80.0522 39.4401C80.223 39.0777 80.4051 38.7265 80.6099 38.3641L80.6896 38.2282C76.4898 47.8107 90.0908 16.7751 71.2771 59.7039V59.7152L71.2885 59.7379L71.2998 59.7718L71.3567 59.9191L71.4819 60.2249C71.9372 61.0971 71.8006 61.7314 71.9486 62.5469C72.9615 61.9466 74.168 61.4256 75.3972 61.0291C75.0671 58.4693 75.1923 56.1472 75.9663 53.8252C77.3093 49.9628 78.4474 46.712 78.4361 43.5178V43.3366C79.4376 41.0485 76.1939 48.4563 80.6896 38.2055L80.6668 38.2395L80.6327 38.3074L80.4847 38.5793L80.1888 39.157C79.9953 39.5534 79.8018 39.9725 79.6311 40.4142L79.3807 41.0599L79.4945 40.5841C79.5628 40.267 79.6197 39.9498 79.6539 39.6327C79.6994 38.9984 79.597 38.3754 79.4604 37.7524C79.2555 37.1634 79.0279 36.5291 78.6296 35.9741C78.1629 35.068 78.1743 32.9272 78.2767 30.8204C78.3792 28.7136 78.584 26.6181 78.1401 25.8139C76.376 22.0874 74.555 18.7686 72.6429 15.4385C70.7194 12.1537 68.7048 8.88026 66.0757 5.55016C64.9717 3.85113 62.832 1.92557 59.9866 0.294498C58.985 0.498382 57.9607 0.770227 56.9591 1.0534C55.9234 1.35922 54.8763 1.72168 53.8405 2.05016C52.7479 2.43528 51.6439 2.82039 50.5057 3.19417C49.2993 3.63592 48.127 4.00971 46.8067 4.44013C45.9417 4.98382 45.1337 5.47087 44.3825 5.88997C43.6199 6.30906 42.8118 6.80744 42.0948 7.1699C41.355 7.56634 40.7176 7.83819 40.012 8.20065C39.3063 8.55178 38.6462 8.84628 38.0088 9.1068C37.3714 9.36731 36.7796 9.58252 36.1991 9.75243C35.6073 9.95631 34.9927 10.1828 34.4236 10.3528C33.2855 10.7039 32.227 10.9531 31.2026 11.1796C30.2124 11.3608 29.154 11.7233 28.141 12.1311C27.1167 12.5502 26.0923 13.0825 25.0566 13.8754C24.7948 14.068 24.5331 14.2832 24.2713 14.521C24.0095 14.7702 23.725 15.0761 23.4518 15.3819C22.8941 16.0049 22.3364 16.7298 21.7901 17.5793C21.2324 18.4288 20.6975 19.3576 20.1739 20.479C19.6618 21.7249 19.1496 23.0728 18.7057 24.5793Z" fill="url(#paint10_linear_132_46)"/>
<path d="M82.8293 45.8058C81.6457 44.3447 83.6147 41.2298 83.9789 38.6359C84.1951 37.9337 83.6602 37.6845 83.1253 37.5032C82.6131 37.3333 82.1009 37.2427 82.3286 36.835C82.4082 34.932 83.2049 33.2443 84.0016 31.5453C84.4 30.6958 84.7983 29.8576 85.1057 28.9854C85.3902 28.1019 85.6861 27.2298 85.5951 26.2443C85.5154 25.9498 85.0374 25.3382 84.4683 24.7718C84.1837 24.4773 83.8764 24.1602 83.6033 23.843C83.3415 23.5485 83.1139 23.2427 82.9773 22.9369C81.5205 19.9466 81.4863 17.1375 81.327 14.3172C81.2473 12.9239 81.0993 11.5534 80.5644 10.2055C80.2913 9.53722 79.9157 8.86893 79.4035 8.23463C78.9027 7.60032 78.2653 6.98867 77.4345 6.411C76.5695 5.93528 76.3874 4.88188 76.5467 3.55663C76.5353 3.55663 76.5126 3.56796 76.4898 3.56796C77.4231 0.928803 73.6217 0.985437 72.7339 1.08738C70.4462 1.24595 68.8642 1.12136 67.3163 0.872168C65.7456 0.600324 64.266 0.21521 62.2515 0C61.5003 0.079288 60.7605 0.192557 60.0093 0.328479C62.8547 1.95955 64.9945 3.88511 66.0985 5.58414C68.7276 8.91424 70.7421 12.1764 72.6656 15.4725C74.5777 18.7913 76.3988 22.1214 78.1629 25.8479C78.6182 26.6521 78.4019 28.7476 78.2995 30.8544C78.1857 32.9612 78.1743 35.1019 78.6523 36.0081C79.0507 36.5631 79.2783 37.1974 79.4832 37.7864C79.6197 38.4094 79.7222 39.0324 79.6767 39.6667C79.6425 39.9838 79.5856 40.301 79.5173 40.6181L79.4035 41.0938L79.6539 40.4482C79.836 40.0065 80.0181 39.5874 80.2116 39.1909L80.5075 38.6133L80.6555 38.3414L80.6896 38.2735L80.7124 38.2395C76.2167 48.4903 79.4718 41.0825 78.4588 43.3706V43.5518C78.4702 46.746 77.3207 49.9968 75.989 53.8592C75.2151 56.1812 75.0899 58.5032 75.42 61.0631C76.4557 60.7233 77.5142 60.4741 78.5499 60.3608C79.119 60.2023 79.5173 60.746 79.7677 61.335C80.0067 61.924 80.1319 62.5583 80.1319 62.5583C81.9643 62.7282 83.922 62.4903 85.8568 62.0146C85.6178 59.1036 85.6861 56.1699 85.3902 53.4062C85.0829 50.6197 84.4 48.0032 82.8293 45.8058Z" fill="url(#paint11_linear_132_46)"/>
<path d="M19.7528 57.699C20.3788 58.6845 21.0389 59.7265 21.6763 60.7233C22.0064 61.2443 22.3364 61.754 22.6437 62.2411C22.9283 62.6715 23.2014 63.068 23.4518 63.4531C25.0338 65.5938 25.3867 66.6699 25.4777 67.5534C25.5346 68.3576 25.3184 68.89 25.8761 69.7961L25.7964 68.7767C26.0127 69.1845 26.2631 69.5922 26.5021 70C26.7411 68.5615 27.1508 67.2929 27.7654 66.2395C28.3459 65.0955 29.154 64.2233 30.2011 63.6456C29.4726 62.4223 28.9036 61.233 28.5963 60.1796C28.5166 59.9078 28.4597 59.6699 28.4028 59.3981C28.3459 59.1149 28.3003 58.8317 28.289 58.5712C28.2434 58.0502 28.289 57.5858 28.4028 57.1893C28.8239 55.8527 29.3474 54.6068 29.9165 53.4401C30.2124 52.8851 30.497 52.2055 30.8043 51.5825C31.1116 50.9595 31.4303 50.3479 31.7603 49.7362C32.4205 48.5129 33.1034 47.4142 33.8318 46.1796C34.5602 44.8997 35.3228 43.6311 36.1195 42.3625C37.7243 39.7573 39.5681 36.8916 41.9013 34.0485C44.2914 31.2508 47.2392 28.7476 50.335 27.0146C51.5528 26.2557 52.5317 26.5388 53.4194 27.2071C54.3186 27.8641 55.1608 28.9175 56.0941 29.9709C57.9607 32.1117 60.237 34.1165 62.5702 34.7395C64.1067 35.1473 66.0643 34.3544 67.3732 36.9595C68.1471 38.6926 68.6479 40.6861 69.3081 42.4191C69.9796 44.1634 70.6625 45.6359 71.5616 46.6214C73.6217 48.6375 75.5679 51.7751 76.3419 55.5696C76.5353 56.5324 76.6719 57.5291 76.763 58.5372L76.8085 59.3188L76.8313 59.9531L76.8199 58.9563C76.8199 58.356 76.8313 57.7557 76.8313 57.144C76.8426 56.7702 76.854 56.3964 76.8768 56.0227C76.9223 55.1618 76.9678 54.3463 77.0247 53.5194C77.0817 52.6019 77.2296 51.7411 77.3207 50.699C77.4231 49.6909 77.5938 48.6602 77.7987 47.6068C77.9467 46.5421 78.1743 45.466 78.4702 44.3786C78.7206 43.3139 78.971 42.2718 79.3693 41.2184C79.7336 40.199 80.1205 39.3155 80.6441 38.3867L80.7238 38.2282C58.2452 89.4935 74.4867 52.4434 69.4788 63.8835H69.4902L69.5812 63.8495L69.7747 63.7816L70.1503 63.6456C70.3779 63.5437 70.708 63.4757 70.8673 63.3398C71.2315 63.0906 71.5388 62.7961 71.9827 62.5583C71.8348 61.754 71.9713 61.1084 71.5161 60.2362L71.3909 59.9304L71.334 59.7832L71.3226 59.7492L71.3112 59.7265V59.7152C90.1249 16.7864 76.524 47.822 80.7238 38.2395L80.6441 38.3754C80.4392 38.7379 80.2571 39.1003 80.0864 39.4515C79.7449 40.1764 79.4945 40.822 79.2214 41.5922C78.3222 44.5032 77.9011 46.8366 77.8897 46.9838L77.7532 47.856L77.6166 48.5809L77.5483 49.0113L77.5255 49.1246C77.5255 49.1586 77.5028 49.2379 77.5255 49.1359L77.5824 48.7508C77.719 47.7087 77.8442 46.6667 77.867 45.6359C77.8784 44.6165 77.8442 43.5971 77.7418 42.6003C77.3207 38.6246 75.6817 35.0113 73.4054 32.4741C71.1291 29.9595 69.2625 26.3803 66.8724 22.9822C65.666 21.2605 64.3002 19.6408 62.5588 18.2476C61.6824 17.5793 60.6922 16.9903 59.5768 16.4919C58.4387 16.0502 57.1867 15.6764 55.6957 15.5858C57.8468 13.8641 59.3606 12.1537 59.1443 10.2848C57.6534 8.23463 54.2503 8.60841 50.6309 10.1489C49.709 10.5566 48.7871 11.021 47.9335 11.4628C47.0571 11.9272 46.158 12.4935 45.4068 12.9239C44.667 13.343 43.9158 13.8188 43.3354 14.1246C42.7435 14.4304 42.2883 14.589 41.981 14.521C40.2396 14.1472 38.2137 14.2605 36.1309 14.6343C35.6073 14.7362 35.0724 14.8495 34.5374 14.9968C33.9797 15.178 33.3993 15.4159 32.8188 15.6764C31.6465 16.1974 30.4515 16.8544 29.2223 17.6586C26.6955 19.5615 24.0323 22.0761 21.6308 26.2557C20.4243 28.2379 19.4 30.6731 18.5236 33.3463C18.0797 34.7055 17.7383 36.0761 17.4651 37.5259C17.1806 38.9757 16.9643 40.5049 16.8277 42.0906C16.9074 43.699 17.0781 45.0922 17.2602 46.576C17.3513 47.301 17.4651 48.0259 17.5789 48.7395C17.6927 49.4531 17.8179 50.178 17.9545 50.7557C18.2163 51.9676 18.5008 53.1796 18.8195 54.3689C19.0927 55.5016 19.4569 56.8155 19.7528 57.699Z" fill="url(#paint12_linear_132_46)"/>
<path d="M71.573 46.6327C70.6739 45.6472 69.991 44.1748 69.3194 42.4304C68.6593 40.6974 68.1585 38.7152 67.3846 36.9709C66.0757 34.377 64.1067 35.1586 62.5816 34.7508C60.2597 34.1278 57.9834 32.123 56.1055 29.9822C55.1608 28.9288 54.3186 27.8754 53.4308 27.2184C52.543 26.5502 51.5642 26.267 50.3464 27.0259C47.2506 28.7589 44.3028 31.2508 41.9127 34.0599C39.5681 36.9029 37.7357 39.7573 36.1309 42.3738C35.3455 43.6424 34.5716 44.911 33.8432 46.1909C33.1147 47.4256 32.4318 48.5243 31.7717 49.7476C31.4417 50.3479 31.123 50.9595 30.8157 51.5939C30.5084 52.2168 30.2238 52.8964 29.9279 53.4515C29.3588 54.6181 28.8353 55.8641 28.4142 57.2006C28.289 57.5858 28.2548 58.0502 28.3003 58.5825C28.3231 58.843 28.3573 59.1149 28.4142 59.4094C28.4711 59.6812 28.528 59.9191 28.6076 60.1909C28.915 61.2443 29.484 62.4337 30.2124 63.657C31.0433 63.1926 32.0335 62.9434 33.1716 62.8074C34.1277 62.5922 34.048 60.5534 33.9684 58.2087C33.9456 57.6084 33.9228 56.9854 33.9001 56.3625C33.8659 55.6602 33.8432 54.9466 33.8318 54.267C33.8318 53.5874 33.8432 52.9304 33.8887 52.3188C33.9228 52.0129 33.9456 51.7184 33.9684 51.4353C34.0025 51.1181 34.0366 50.8123 34.0822 50.5291C35.4138 48.8301 37.1097 49.1812 38.8738 49.9288C39.7616 50.2573 40.6835 50.7104 41.6168 51.1861L43.0167 51.911L44.4052 52.4547C45.0767 52.5906 45.7483 52.7039 46.4312 52.8058C46.3629 52.9078 46.3173 52.9984 46.2832 53.089C46.7726 53.2249 47.2392 53.3608 47.6945 53.3835C47.888 52.2055 48.1611 50.9595 48.5595 49.8948C48.4229 49.623 48.3319 49.3625 48.3433 48.9434C48.4798 49.0453 48.6392 49.1586 48.8213 49.2605C49.4586 47.6974 50.3919 46.2816 51.6211 45.2508C52.839 44.3333 53.8292 43.3139 54.66 42.4417C54.512 42.1812 54.4665 41.8754 54.4665 41.5356C54.569 41.8414 54.7397 42.0113 54.9673 42.1133C56.4697 40.5615 57.7899 39.3495 59.4061 39.021C61.0337 38.6926 62.6499 39.1683 64.5506 40.4822C66.383 41.7848 67.6805 43.1893 69.126 44.9563C69.4446 45.4094 69.8658 45.8738 70.1844 46.3948C70.5145 46.9045 70.8559 47.4709 71.2202 48.0712C71.573 48.6715 71.9258 49.3285 72.2786 50.0421C72.4607 50.4045 72.6429 50.767 72.825 51.1521L72.8932 51.2994L72.8819 51.2654L72.825 51.1408C72.9388 51.3786 73.0298 51.5825 73.1209 51.7751C73.1892 51.9223 73.2461 52.0696 73.3257 52.2395C73.3713 52.3074 73.4623 52.466 73.542 52.6133C73.6786 52.9078 73.8379 53.2136 73.781 52.8285C74.02 53.5081 74.259 54.1764 74.498 54.8333C74.6915 55.3544 74.885 55.8754 75.0671 56.3851C75.363 57.1553 75.6248 58.0841 75.8069 58.5599C75.898 58.8544 75.989 59.1375 76.0801 59.4094C76.1256 59.5566 76.1598 59.6926 76.2053 59.8285C76.0346 59.2735 76.0118 59.1602 75.9321 58.9223C75.7842 58.4806 75.5793 57.8463 75.3972 57.2913L75.511 57.6424L75.6476 58.0728C75.8752 58.7184 76.0801 59.3641 76.2394 59.9531L76.3646 60.4401C76.3077 60.1909 76.2394 59.9531 76.1825 59.7039C76.0687 59.2168 75.9663 58.7411 75.8752 58.288C76.0118 58.8657 76.137 59.4207 76.2622 59.9417C76.3191 60.1683 76.376 60.3835 76.4215 60.5987C76.376 60.4628 76.3191 60.1796 76.2508 59.9531C76.1598 59.6359 76.0687 59.3301 75.9776 59.0243C76.1939 59.7039 76.3988 60.5194 76.5467 61.0178C76.615 61.3123 76.6947 61.5955 76.763 61.89L76.9223 62.6036L77.0134 63.034C76.9906 62.9207 76.9678 62.7961 76.9337 62.6602L77.002 62.966C77.0248 63.1019 77.0589 63.3058 77.1044 63.5437C77.1044 63.5437 77.1158 63.6343 77.1044 63.555C77.093 63.4644 77.0817 63.3625 77.0703 63.2605C77.0475 62.9887 77.0134 62.7055 76.9906 62.411C76.9678 62.1165 76.9451 61.7994 76.9337 61.4595C76.9109 60.9498 76.8882 60.4968 76.8768 60.1003C76.854 59.5566 76.8654 59.0016 76.8768 58.39C76.8654 57.6424 76.8768 56.8722 76.9223 56.0793C76.9109 56.4531 76.8996 56.8269 76.8768 57.2006C76.8768 57.8123 76.8654 58.4126 76.8654 59.0129L76.8768 60.0097L76.854 59.3754L76.8085 58.5939C76.7174 57.5858 76.5809 56.589 76.3874 55.6262C75.5679 51.7751 73.6331 48.6489 71.573 46.6327Z" fill="url(#paint13_linear_132_46)"/>
<path d="M38.1365 26.5795C38.4482 26.4054 38.7685 26.1879 39.0975 25.9268C39.4438 25.6657 39.7728 25.3959 40.0845 25.1174C40.3962 24.8389 40.6733 24.5778 40.9157 24.3341C41.1754 24.073 41.3746 23.8467 41.5131 23.6552C41.617 23.5334 41.7555 23.4725 41.9287 23.4725C42.223 23.4725 42.4568 23.5856 42.6299 23.8119C42.8204 24.0208 42.9157 24.2471 42.9157 24.4908C42.9157 24.6648 42.881 24.8128 42.8118 24.9346C42.604 25.2131 42.3356 25.5264 42.0066 25.8746C41.6949 26.2053 41.3226 26.5447 40.8897 26.8928C40.4741 27.2409 40.0153 27.5978 39.5131 27.9633C39.0109 28.3114 38.4915 28.6422 37.9547 28.9555C37.6603 32.3845 36.9417 35.3784 35.7989 37.9371C34.6733 40.4784 33.2275 42.602 31.4613 44.3078C29.7124 46.0137 27.7037 47.293 25.4354 48.1459C23.1843 48.9814 20.7861 49.3992 18.2406 49.3992C16.8554 49.3992 15.4528 49.2512 14.0329 48.9553C12.6303 48.6594 11.2797 48.2068 9.98101 47.5976C8.68233 46.971 7.47022 46.1877 6.34469 45.2478C5.21917 44.2904 4.24082 43.159 3.40967 41.8535C2.57851 40.5307 1.92051 39.0337 1.43566 37.3627C0.968138 35.6743 0.734375 33.7857 0.734375 31.697C0.734375 29.6256 0.976796 27.6674 1.46164 25.8223C1.9638 23.9599 2.69106 22.2366 3.64343 20.6527C4.61311 19.0513 5.79925 17.6153 7.20183 16.3446C8.60441 15.0565 10.2234 13.9512 12.0589 13.0287C12.1974 12.9591 12.3533 12.9243 12.5264 12.9243C12.7689 12.9243 12.994 13.0113 13.2017 13.1854C13.4095 13.3594 13.5134 13.5944 13.5134 13.8903C13.5134 14.0818 13.4528 14.2645 13.3316 14.4386C13.2277 14.5953 13.0805 14.7171 12.8901 14.8041C12.7862 14.8564 12.4572 15.0217 11.9031 15.3002C11.3663 15.5613 10.7169 15.9704 9.95504 16.5274C9.21046 17.0844 8.40527 17.798 7.53948 18.6683C6.69101 19.5213 5.90314 20.5656 5.17588 21.8015C4.46593 23.0373 3.86853 24.4733 3.38369 26.1095C2.91617 27.7457 2.6824 29.6082 2.6824 31.697C2.6824 33.6117 2.88153 35.3001 3.2798 36.7622C3.69538 38.2243 4.24082 39.5037 4.91614 40.6003C5.59146 41.6969 6.36201 42.6281 7.2278 43.394C8.11091 44.1599 9.01133 44.7952 9.92906 45.3C10.8641 45.8048 11.7905 46.2051 12.7082 46.501C13.626 46.7969 14.4658 47.0145 15.2277 47.1538C16.0069 47.293 16.6649 47.38 17.2017 47.4149C17.7385 47.4497 18.0935 47.4671 18.2666 47.4671C20.4138 47.4671 22.4657 47.1277 24.4224 46.4488C26.3791 45.77 28.1366 44.7256 29.695 43.3157C31.2535 41.8884 32.5608 40.0781 33.6171 37.8849C34.6907 35.6917 35.4179 33.0808 35.7989 30.0521C34.6733 30.5569 33.4959 30.9572 32.2664 31.2531C31.0543 31.5316 29.7816 31.6709 28.4483 31.6709C26.6128 31.6709 24.8293 31.4359 23.0977 30.9659C21.3661 30.4785 19.8337 29.7562 18.5004 28.7988C17.1671 27.8241 16.0935 26.6143 15.2796 25.1696C14.4658 23.7249 14.0589 22.0365 14.0589 20.1044C14.0589 18.5378 14.3273 17.1366 14.8641 15.9007C15.4182 14.6475 16.1628 13.5857 17.0978 12.7154C18.0329 11.8277 19.1151 11.1575 20.3445 10.705C21.5739 10.235 22.864 10 24.2146 10C25.3228 10 26.431 10.1305 27.5392 10.3916C28.6648 10.6527 29.7383 11.0618 30.76 11.6188C31.7989 12.1584 32.7599 12.8459 33.6431 13.6814C34.5435 14.5169 35.3227 15.5178 35.9807 16.684C36.656 17.8502 37.1841 19.1818 37.5651 20.6788C37.946 22.1583 38.1365 23.8206 38.1365 25.6657V26.5795ZM36.1105 27.8067C36.1625 27.1278 36.1885 26.449 36.1885 25.7701C36.1885 23.2984 35.8248 21.1836 35.0976 19.4255C34.3876 17.6675 33.4526 16.2315 32.2924 15.1175C31.1496 14.0035 29.8595 13.1941 28.4223 12.6893C26.9851 12.1671 25.5479 11.906 24.1107 11.906C23.0025 11.906 21.9549 12.0888 20.9679 12.4543C19.9982 12.8198 19.1411 13.3507 18.3965 14.047C17.6692 14.7432 17.0891 15.6048 16.6563 16.6318C16.2407 17.6414 16.0329 18.7989 16.0329 20.1044C16.0329 21.3576 16.2926 22.5674 16.8121 23.7336C17.3489 24.8824 18.1368 25.9094 19.1757 26.8145C20.2146 27.7022 21.5047 28.4159 23.0458 28.9555C24.6042 29.4777 26.4137 29.7388 28.4743 29.7388C29.8769 29.7388 31.2102 29.5647 32.4742 29.2166C33.7556 28.8684 34.9677 28.3985 36.1105 27.8067Z" fill="white"/>
<path d="M51.8246 40.1564C51.5649 41.3749 51.1926 42.515 50.7078 43.5768C50.2229 44.6211 49.7035 45.535 49.1493 46.3183C48.6126 47.1015 48.0671 47.7195 47.513 48.172C46.9589 48.6246 46.4827 48.8683 46.0844 48.9031C45.6342 48.9031 45.1321 48.6768 44.578 48.2243C44.0412 47.7717 43.5217 47.1451 43.0196 46.3444C42.5347 45.5263 42.1278 44.5602 41.7988 43.4462C41.4698 42.3322 41.3053 41.1225 41.3053 39.817C41.3053 38.6682 41.4005 37.7979 41.591 37.2061C41.7988 36.6142 41.9287 36.2748 41.9806 36.1878C42.0672 36.0311 42.1797 35.9093 42.3183 35.8223C42.4741 35.7352 42.6473 35.6917 42.8377 35.6917C43.1321 35.6917 43.3659 35.7962 43.539 36.005C43.7122 36.1965 43.7988 36.4141 43.7988 36.6578C43.7988 36.8318 43.7641 36.9798 43.6949 37.1016C43.6776 37.1364 43.5996 37.3714 43.4611 37.8066C43.3226 38.2417 43.2533 38.8945 43.2533 39.7648C43.2533 40.7918 43.3572 41.7404 43.565 42.6107C43.7728 43.481 44.0239 44.2295 44.3182 44.8561C44.6126 45.4828 44.9156 45.9788 45.2273 46.3444C45.5563 46.6925 45.8247 46.8666 46.0325 46.8666C46.171 46.8666 46.3702 46.736 46.6299 46.4749C46.907 46.2138 47.1927 45.857 47.487 45.4044C47.7987 44.9519 48.1104 44.4123 48.4221 43.7856C48.7511 43.159 49.0455 42.4802 49.3052 41.7491C49.5822 41.0006 49.7987 40.2174 49.9545 39.3993C50.1277 38.5638 50.2143 37.7195 50.2143 36.8666C50.2143 36.6926 50.2056 36.5272 50.1883 36.3706C50.1883 36.1965 50.1883 36.0224 50.1883 35.8484C50.1883 35.5525 50.2749 35.3088 50.448 35.1173C50.6385 34.9084 50.8809 34.804 51.1753 34.804C51.4004 34.804 51.5995 34.8736 51.7727 35.0129C51.9632 35.1521 52.0844 35.3436 52.1363 35.5873C52.1363 35.5699 52.171 35.7091 52.2402 36.005C52.3095 36.3009 52.422 36.6839 52.5779 37.1538C52.751 37.6064 52.9588 38.1025 53.2012 38.6421C53.461 39.1817 53.764 39.6865 54.1103 40.1564C54.474 40.609 54.8895 40.9919 55.3571 41.3052C55.8246 41.6186 56.3614 41.7752 56.9674 41.7752C57.2964 41.7752 57.5821 41.7056 57.8246 41.5663C58.067 41.4271 58.2661 41.2704 58.422 41.0964C58.5778 40.9223 58.6903 40.7569 58.7596 40.6003C58.8462 40.4436 58.8895 40.3566 58.8895 40.3392C58.9587 40.1477 59.0713 39.9998 59.2271 39.8953C59.4003 39.7735 59.5908 39.7126 59.7986 39.7126C60.0756 39.7126 60.3094 39.817 60.4999 40.0259C60.6903 40.2174 60.7856 40.4436 60.7856 40.7047C60.7856 40.8266 60.7596 40.9484 60.7076 41.0703C60.6037 41.3139 60.4479 41.5925 60.2401 41.9058C60.0496 42.2191 59.7986 42.515 59.4869 42.7935C59.1752 43.072 58.8029 43.307 58.37 43.4984C57.9544 43.6725 57.4869 43.7595 56.9674 43.7595C56.3614 43.7595 55.7986 43.6551 55.2791 43.4462C54.7597 43.2199 54.2835 42.9414 53.8506 42.6107C53.435 42.2626 53.0541 41.8797 52.7077 41.4619C52.3614 41.0267 52.0671 40.5916 51.8246 40.1564Z" fill="white"/>
<path d="M78.9931 41.0964C78.9239 41.2356 78.7767 41.5315 78.5516 41.9841C78.3438 42.4193 78.0667 42.924 77.7204 43.4984C77.3914 44.0728 77.0018 44.6734 76.5516 45.3C76.1014 45.9266 75.5992 46.501 75.0451 47.0232C74.491 47.5454 73.8936 47.9806 73.2529 48.3287C72.6123 48.6594 71.9369 48.8248 71.227 48.8248C70.2227 48.8248 69.3742 48.5028 68.6816 47.8587C68.0062 47.2147 67.5127 46.4053 67.2011 45.4305C66.6123 46.4227 65.911 47.2147 65.0972 47.8065C64.2834 48.3809 63.4695 48.6681 62.6557 48.6681C62.015 48.6681 61.4349 48.555 60.9154 48.3287C60.396 48.085 59.9544 47.7543 59.5908 47.3365C59.2271 46.9014 58.9414 46.3966 58.7336 45.8222C58.5432 45.2478 58.4479 44.6211 58.4479 43.9423C58.4479 42.5846 58.673 41.3923 59.1232 40.3653C59.5908 39.3209 60.1795 38.4506 60.8895 37.7544C61.5994 37.0581 62.3786 36.5359 63.2271 36.1878C64.0929 35.8397 64.924 35.6656 65.7206 35.6656C66.2574 35.6656 66.7509 35.7439 67.2011 35.9006C67.6513 36.0398 68.0322 36.1965 68.3439 36.3706C68.6729 36.5446 68.924 36.71 69.0971 36.8666C69.2703 37.0059 69.3655 37.0842 69.3829 37.1016C69.5733 37.3279 69.6686 37.5629 69.6686 37.8066C69.6686 38.0677 69.5733 38.3027 69.3829 38.5115C69.1924 38.703 68.9673 38.7987 68.7075 38.7987C68.4305 38.7987 68.1967 38.703 68.0062 38.5115C67.9716 38.4767 67.8937 38.4158 67.7725 38.3288C67.6513 38.2243 67.4868 38.1199 67.279 38.0155C67.0712 37.911 66.8201 37.824 66.5257 37.7544C66.2487 37.6673 65.9284 37.6238 65.5647 37.6238C65.0279 37.6238 64.4565 37.7457 63.8505 37.9893C63.2444 38.233 62.6903 38.616 62.1881 39.1382C61.686 39.6429 61.2617 40.287 60.9154 41.0703C60.5864 41.8361 60.4219 42.75 60.4219 43.8118C60.4219 44.1425 60.4566 44.4819 60.5258 44.83C60.5951 45.1607 60.7163 45.4654 60.8895 45.7439C61.0626 46.0224 61.2964 46.2486 61.5907 46.4227C61.8851 46.5968 62.2487 46.6838 62.6816 46.6838C62.9933 46.6838 63.3483 46.5794 63.7466 46.3705C64.1621 46.1616 64.5518 45.8396 64.9154 45.4044C65.2963 44.9693 65.634 44.421 65.9284 43.7595C66.24 43.0981 66.4565 42.3148 66.5777 41.4097C66.6123 41.166 66.7249 40.9658 66.9154 40.8092C67.1058 40.6351 67.3309 40.5481 67.5907 40.5481C67.8331 40.5481 68.0409 40.6438 68.214 40.8353C68.4045 41.0267 68.5084 41.2443 68.5257 41.488C68.543 41.8187 68.5777 42.2887 68.6296 42.8979C68.6816 43.4897 68.7941 44.0816 68.9673 44.6734C69.1578 45.2652 69.4348 45.7787 69.7984 46.2138C70.1621 46.649 70.6642 46.8666 71.3049 46.8666C71.7205 46.8666 72.1274 46.7534 72.5257 46.5271C72.9413 46.3009 73.3395 46.005 73.7205 45.6394C74.1187 45.2565 74.491 44.83 74.8373 44.3601C75.201 43.8727 75.53 43.3853 75.8243 42.8979C76.1187 42.4105 76.3784 41.9406 76.6035 41.488C76.8287 41.0354 77.0191 40.6438 77.175 40.3131C77.2615 40.1216 77.3828 39.9737 77.5386 39.8692C77.7118 39.7648 77.8936 39.7126 78.084 39.7126C78.3784 39.7126 78.6122 39.8257 78.7853 40.052C78.9758 40.2609 79.071 40.4872 79.071 40.7308C79.071 40.8527 79.0451 40.9745 78.9931 41.0964Z" fill="white"/>
<path d="M98.2396 22.2453C98.2396 22.5238 98.1444 22.7501 97.9539 22.9242C97.7635 23.0808 97.5297 23.1592 97.2526 23.1592H84.084V23.4464C84.084 24.5082 84.0061 25.6396 83.8502 26.8406C83.6944 28.0416 83.4779 29.2427 83.2009 30.4437C82.9411 31.6273 82.6381 32.7849 82.2918 33.9163C81.9628 35.0477 81.6165 36.0921 81.2528 37.0494C80.9065 38.0068 80.5602 38.8423 80.2139 39.5559C79.8676 40.2522 79.5559 40.7744 79.2788 41.1225C79.5039 41.9232 79.7723 42.6716 80.084 43.3679C80.3957 44.0467 80.742 44.6473 81.123 45.1694C81.5212 45.6742 81.9455 46.0746 82.3957 46.3705C82.8459 46.6664 83.3307 46.8143 83.8502 46.8143C84.4563 46.8143 85.0537 46.562 85.6424 46.0572C86.2484 45.535 86.8026 44.9258 87.3047 44.2295C87.8242 43.5158 88.2744 42.8022 88.6553 42.0885C89.0536 41.3575 89.3393 40.7744 89.5125 40.3392C89.6856 39.9214 89.9887 39.7126 90.4216 39.7126C90.7159 39.7126 90.9497 39.817 91.1228 40.0259C91.3133 40.2348 91.4086 40.461 91.4086 40.7047C91.4086 40.8266 91.3826 40.9484 91.3306 41.0703C91.2787 41.1921 91.1488 41.4706 90.941 41.9058C90.7505 42.3409 90.4908 42.8457 90.1618 43.4201C89.8501 43.9945 89.4778 44.6037 89.0449 45.2478C88.6294 45.8744 88.1532 46.4488 87.6164 46.971C87.0969 47.4932 86.5342 47.9283 85.9281 48.2765C85.3221 48.6246 84.6814 48.7987 84.0061 48.7987C82.8113 48.7987 81.7377 48.407 80.7853 47.6237C79.8329 46.8405 79.0191 45.7439 78.3438 44.3339C77.6858 42.924 77.1836 41.253 76.8373 39.3209C76.491 37.3888 76.3178 35.274 76.3178 32.9763C76.3178 32.4019 76.3265 31.7318 76.3438 30.9659C76.3611 30.1826 76.3958 29.3645 76.4477 28.5116C76.4996 27.6413 76.5776 26.7536 76.6815 25.8484C76.7854 24.9259 76.9239 24.0295 77.097 23.1592H67.7725C67.4954 23.1592 67.2617 23.0808 67.0712 22.9242C66.8807 22.7501 66.7855 22.5238 66.7855 22.2453C66.7855 21.9668 66.8807 21.7493 67.0712 21.5926C67.2617 21.4185 67.4954 21.3315 67.7725 21.3315H77.5386C77.7118 20.7049 77.9109 20.1305 78.136 19.6083C78.3784 19.0861 78.6468 18.6335 78.9412 18.2506C79.2529 17.8677 79.5905 17.5717 79.9542 17.3629C80.3351 17.1366 80.7507 17.0234 81.2009 17.0234C81.6338 17.0234 82.0061 17.1366 82.3178 17.3629C82.6468 17.5717 82.9238 17.8677 83.1489 18.2506C83.374 18.6335 83.5472 19.0861 83.6684 19.6083C83.8069 20.1305 83.9108 20.7049 83.9801 21.3315H97.2526C97.5297 21.3315 97.7635 21.4185 97.9539 21.5926C98.1444 21.7493 98.2396 21.9668 98.2396 22.2453ZM78.6814 38.5115C79.2009 37.3627 79.6684 36.1269 80.084 34.804C80.5169 33.4637 80.8805 32.1147 81.1749 30.757C81.4866 29.3993 81.7204 28.0677 81.8762 26.7623C82.0494 25.4568 82.1359 24.2558 82.1359 23.1592H79.071C78.8286 24.2384 78.6295 25.5786 78.4736 27.18C78.3351 28.764 78.2659 30.6961 78.2659 32.9763C78.2659 34.247 78.3005 35.3175 78.3698 36.1878C78.439 37.0407 78.5429 37.8153 78.6814 38.5115ZM81.097 18.9817C80.9412 18.9817 80.716 19.1557 80.4217 19.5038C80.1273 19.8346 79.8329 20.4438 79.5386 21.3315H82.032C81.9455 20.6004 81.8156 20.026 81.6424 19.6083C81.4866 19.1905 81.3048 18.9817 81.097 18.9817Z" fill="white"/>
<path d="M93.8501 27.885C93.8501 28.5464 93.6163 29.1121 93.1488 29.5821C92.6986 30.0347 92.1445 30.2609 91.4865 30.2609C90.8285 30.2609 90.2657 30.0347 89.7982 29.5821C89.348 29.1121 89.1229 28.5464 89.1229 27.885C89.1229 27.5543 89.1835 27.2497 89.3047 26.9712C89.4259 26.6752 89.5904 26.4229 89.7982 26.214C90.0233 25.9877 90.2744 25.8136 90.5514 25.6918C90.8458 25.5699 91.1575 25.509 91.4865 25.509C91.8155 25.509 92.1185 25.5699 92.3956 25.6918C92.6899 25.8136 92.941 25.9877 93.1488 26.214C93.3739 26.4229 93.5471 26.6752 93.6683 26.9712C93.7895 27.2497 93.8501 27.5543 93.8501 27.885ZM89.6423 43.1851C89.6423 40.6786 89.7982 38.1808 90.1099 35.6917C90.1445 35.448 90.2484 35.2391 90.4216 35.0651C90.612 34.8736 90.8544 34.7779 91.1488 34.7779C91.4086 34.7779 91.625 34.8823 91.7982 35.0912C91.9713 35.2827 92.0579 35.5089 92.0579 35.77C92.0579 35.8745 92.0319 36.1878 91.98 36.71C91.9453 37.2322 91.8934 37.8588 91.8241 38.5899C91.7722 39.3035 91.7202 40.0694 91.6683 40.8875C91.6337 41.6882 91.6163 42.428 91.6163 43.1068C91.6163 44.0293 91.7029 44.7778 91.8761 45.3522C92.0666 45.9092 92.3003 46.3444 92.5774 46.6577C92.8717 46.971 93.1748 47.1799 93.4865 47.2843C93.8154 47.3888 94.1271 47.441 94.4215 47.441C94.9063 47.441 95.4085 47.2669 95.928 46.9188C96.4474 46.5707 96.9756 46.0833 97.5124 45.4566C98.0665 44.83 98.6206 44.0816 99.1747 43.2112C99.7288 42.3235 100.274 41.3401 100.811 40.2609C100.898 40.0868 101.019 39.9563 101.175 39.8692C101.331 39.7648 101.504 39.7126 101.694 39.7126C101.971 39.7126 102.196 39.817 102.369 40.0259C102.56 40.2348 102.655 40.461 102.655 40.7047C102.655 40.8788 102.621 41.0267 102.551 41.1486C102.343 41.5489 102.084 42.0363 101.772 42.6107C101.46 43.1851 101.105 43.7769 100.707 44.3862C100.309 44.9954 99.8673 45.6046 99.3825 46.2138C98.9149 46.8056 98.4128 47.3452 97.876 47.8326C97.3392 48.3026 96.7765 48.6855 96.1877 48.9814C95.599 49.2773 95.0016 49.4253 94.3955 49.4253C93.6163 49.4253 92.9323 49.2599 92.3436 48.9292C91.7549 48.5985 91.2527 48.1546 90.8371 47.5976C90.4389 47.0406 90.1358 46.3879 89.9281 45.6394C89.7376 44.8735 89.6423 44.0554 89.6423 43.1851ZM92.3956 27.885C92.3956 27.6413 92.3003 27.4324 92.1098 27.2584C91.9367 27.0669 91.7289 26.9712 91.4865 26.9712C91.244 26.9712 91.0363 27.0669 90.8631 27.2584C90.6899 27.4324 90.6034 27.6413 90.6034 27.885C90.6034 28.1287 90.6899 28.3375 90.8631 28.5116C91.0363 28.6857 91.244 28.7727 91.4865 28.7727C91.7289 28.7727 91.9367 28.6857 92.1098 28.5116C92.3003 28.3375 92.3956 28.1287 92.3956 27.885Z" fill="white"/>
<path d="M112.759 45.5089C112.326 45.5089 111.945 45.4741 111.616 45.4044C111.356 45.9266 111.045 46.414 110.681 46.8666C110.317 47.3017 109.893 47.6847 109.408 48.0154C108.941 48.3461 108.413 48.6072 107.824 48.7987C107.235 48.9901 106.595 49.0859 105.902 49.0859C105.088 49.0859 104.343 48.9379 103.668 48.642C102.993 48.3635 102.404 47.9719 101.902 47.4671C101.4 46.9449 101.01 46.327 100.733 45.6133C100.456 44.8822 100.318 44.0816 100.318 43.2112C100.318 42.0972 100.517 41.1312 100.915 40.3131C101.313 39.4776 101.772 38.79 102.292 38.2504C102.811 37.6934 103.33 37.2844 103.85 37.0233C104.369 36.7448 104.759 36.6055 105.019 36.6055C105.313 36.6055 105.53 36.6839 105.668 36.8405C105.824 36.9972 105.902 37.2061 105.902 37.4672C105.902 37.7631 105.807 37.9893 105.616 38.146C105.443 38.2853 105.218 38.4245 104.941 38.5638C104.664 38.703 104.369 38.9032 104.058 39.1643C103.746 39.408 103.452 39.7213 103.175 40.1042C102.915 40.4872 102.698 40.9397 102.525 41.4619C102.352 41.9841 102.266 42.5672 102.266 43.2112C102.266 43.7856 102.352 44.3252 102.525 44.83C102.698 45.3174 102.95 45.7439 103.279 46.1094C103.608 46.4575 103.997 46.736 104.447 46.9449C104.898 47.1364 105.4 47.2321 105.954 47.2321C106.941 47.2321 107.755 47.0058 108.395 46.5532C109.053 46.0833 109.556 45.4915 109.902 44.7778C108.88 44.2382 108.04 43.4723 107.382 42.4802C106.724 41.488 106.395 40.374 106.395 39.1382C106.395 38.146 106.629 37.3366 107.097 36.71C107.582 36.0834 108.214 35.77 108.993 35.77C109.46 35.77 109.902 35.8832 110.317 36.1095C110.733 36.3357 111.097 36.6926 111.408 37.18C111.737 37.6673 111.997 38.294 112.188 39.0598C112.378 39.8257 112.473 40.7395 112.473 41.8013C112.473 42.3583 112.404 42.9414 112.265 43.5507C112.369 43.5681 112.473 43.5768 112.577 43.5768C112.681 43.5768 112.794 43.5768 112.915 43.5768C113.504 43.5768 114.032 43.5071 114.499 43.3679C114.967 43.2286 115.391 43.0198 115.772 42.7413C116.153 42.4628 116.49 42.1059 116.785 41.6708C117.097 41.2356 117.391 40.7308 117.668 40.1564C117.72 40.052 117.832 39.9563 118.006 39.8692C118.179 39.7648 118.352 39.7126 118.525 39.7126C118.75 39.7126 118.958 39.8083 119.148 39.9998C119.356 40.1738 119.46 40.4088 119.46 40.7047C119.46 40.844 119.426 41.0006 119.356 41.1747C119.287 41.3314 119.218 41.4793 119.148 41.6186C118.854 42.1408 118.508 42.6455 118.11 43.1329C117.729 43.6029 117.27 44.0206 116.733 44.3862C116.213 44.7343 115.625 45.0128 114.967 45.2217C114.309 45.4305 113.573 45.5263 112.759 45.5089ZM108.317 38.9293C108.317 39.26 108.361 39.6081 108.447 39.9737C108.534 40.3392 108.664 40.7047 108.837 41.0703C109.027 41.4184 109.252 41.7578 109.512 42.0885C109.789 42.4018 110.11 42.6716 110.473 42.8979C110.525 42.5324 110.551 42.1756 110.551 41.8274C110.551 41.3575 110.517 40.8788 110.447 40.3914C110.378 39.904 110.274 39.4602 110.136 39.0598C110.014 38.6421 109.859 38.3114 109.668 38.0677C109.478 37.8066 109.252 37.676 108.993 37.676C108.889 37.676 108.75 37.7544 108.577 37.911C108.404 38.0677 108.317 38.4071 108.317 38.9293Z" fill="white"/>
<path d="M123.382 46.0311C123.659 45.4566 123.98 44.83 124.343 44.1512C124.707 43.4549 125.096 42.7587 125.512 42.0624C125.928 41.3488 126.36 40.6438 126.811 39.9476C127.278 39.2513 127.763 38.5899 128.265 37.9632C128.767 37.354 129.27 36.9189 129.772 36.6578C130.291 36.3793 130.776 36.24 131.226 36.24C132.127 36.24 132.793 36.5707 133.226 37.2322C133.659 37.8936 133.876 38.7117 133.876 39.6865C133.876 39.9127 133.858 40.1912 133.824 40.522C133.806 40.8353 133.78 41.1747 133.746 41.5402C133.728 41.9058 133.702 42.28 133.668 42.6629C133.65 43.0285 133.642 43.3766 133.642 43.7073C133.642 44.1251 133.659 44.5254 133.694 44.9084C133.746 45.2913 133.832 45.6307 133.953 45.9266C134.075 46.2051 134.248 46.4314 134.473 46.6055C134.698 46.7621 134.992 46.8405 135.356 46.8405C136.014 46.8405 136.655 46.5881 137.278 46.0833C137.901 45.5611 138.473 44.9519 138.992 44.2556C139.529 43.542 139.988 42.8196 140.369 42.0885C140.767 41.3575 141.062 40.7656 141.252 40.3131C141.339 40.1216 141.46 39.9737 141.616 39.8692C141.789 39.7648 141.971 39.7126 142.161 39.7126C142.456 39.7126 142.689 39.8257 142.862 40.052C143.053 40.2609 143.148 40.4872 143.148 40.7308C143.148 40.8527 143.122 40.9745 143.07 41.0964C143.001 41.2356 142.862 41.5228 142.655 41.958C142.447 42.3931 142.17 42.8979 141.824 43.4723C141.494 44.0293 141.105 44.6299 140.655 45.2739C140.204 45.9005 139.702 46.4749 139.148 46.9971C138.611 47.5193 138.023 47.9545 137.382 48.3026C136.759 48.6507 136.101 48.8248 135.408 48.8248C134.629 48.8248 133.997 48.6768 133.512 48.3809C133.027 48.0676 132.646 47.6673 132.369 47.1799C132.092 46.6751 131.902 46.1268 131.798 45.535C131.711 44.9258 131.668 44.3165 131.668 43.7073C131.668 43.4462 131.676 43.1503 131.694 42.8196C131.728 42.4889 131.763 42.1408 131.798 41.7752C131.85 41.4097 131.884 41.0442 131.902 40.6786C131.936 40.3131 131.953 39.965 131.953 39.6342C131.953 39.0772 131.867 38.703 131.694 38.5115C131.521 38.3027 131.365 38.1982 131.226 38.1982C130.949 38.1982 130.629 38.3636 130.265 38.6943C129.919 39.0076 129.547 39.4254 129.148 39.9476C128.767 40.4697 128.369 41.0616 127.954 41.723C127.555 42.367 127.174 43.0111 126.811 43.6551C126.464 44.2991 126.135 44.9171 125.824 45.5089C125.529 46.0833 125.296 46.562 125.122 46.9449C124.776 47.676 124.43 48.1633 124.083 48.407C123.737 48.6681 123.382 48.7987 123.019 48.7987C122.516 48.7987 122.109 48.6507 121.798 48.3548C121.503 48.0415 121.356 47.6063 121.356 47.0493C121.356 46.9275 121.374 46.6925 121.408 46.3444C121.443 45.9788 121.486 45.5524 121.538 45.065C121.59 44.5602 121.642 44.0206 121.694 43.4462C121.746 42.8718 121.798 42.3061 121.85 41.7491C121.902 41.1747 121.945 40.6438 121.98 40.1564C122.014 39.6691 122.032 39.26 122.032 38.9293C122.032 38.4941 122.014 38.0764 121.98 37.676C121.945 37.2757 121.876 37.032 121.772 36.945C121.616 36.9972 121.339 37.3279 120.941 37.9371C120.542 38.5289 120.032 39.582 119.408 41.0964C119.322 41.2878 119.192 41.4358 119.019 41.5402C118.845 41.6447 118.664 41.6969 118.473 41.6969C118.179 41.6969 117.945 41.6012 117.772 41.4097C117.599 41.2008 117.512 40.9658 117.512 40.7047C117.512 40.5829 117.538 40.4523 117.59 40.3131C118.369 38.4506 119.097 37.0842 119.772 36.2139C120.464 35.3262 121.148 34.8823 121.824 34.8823C122.222 34.8823 122.56 34.9868 122.837 35.1956C123.114 35.3871 123.33 35.6482 123.486 35.9789C123.659 36.3096 123.78 36.6752 123.85 37.0755C123.936 37.4759 123.98 37.8849 123.98 38.3027C123.98 38.616 123.954 39.1033 123.902 39.7648C123.867 40.4262 123.815 41.1399 123.746 41.9058C123.677 42.6542 123.607 43.4027 123.538 44.1512C123.486 44.8997 123.434 45.5263 123.382 46.0311Z" fill="white"/>
</g>
<defs>
<linearGradient id="paint0_linear_132_46" x1="79.7344" y1="-9" x2="62.0347" y2="70.0672" gradientUnits="userSpaceOnUse">
<stop stop-color="#484A44"/>
<stop offset="0.651635" stop-color="#2F322D"/>
</linearGradient>
<linearGradient id="paint1_linear_132_46" x1="79.7344" y1="-9" x2="62.0347" y2="70.0672" gradientUnits="userSpaceOnUse">
<stop stop-color="#484A44"/>
<stop offset="0.651635" stop-color="#2F322D"/>
</linearGradient>
<linearGradient id="paint2_linear_132_46" x1="79.7344" y1="-9" x2="62.0347" y2="70.0672" gradientUnits="userSpaceOnUse">
<stop stop-color="#484A44"/>
<stop offset="0.651635" stop-color="#2F322D"/>
</linearGradient>
<linearGradient id="paint3_linear_132_46" x1="79.7344" y1="-9" x2="62.0347" y2="70.0672" gradientUnits="userSpaceOnUse">
<stop stop-color="#484A44"/>
<stop offset="0.651635" stop-color="#2F322D"/>
</linearGradient>
<linearGradient id="paint4_linear_132_46" x1="79.7344" y1="-9" x2="62.0347" y2="70.0672" gradientUnits="userSpaceOnUse">
<stop stop-color="#484A44"/>
<stop offset="0.651635" stop-color="#2F322D"/>
</linearGradient>
<linearGradient id="paint5_linear_132_46" x1="79.7344" y1="-9" x2="62.0347" y2="70.0672" gradientUnits="userSpaceOnUse">
<stop stop-color="#484A44"/>
<stop offset="0.651635" stop-color="#2F322D"/>
</linearGradient>
<linearGradient id="paint6_linear_132_46" x1="79.7344" y1="-9" x2="62.0347" y2="70.0672" gradientUnits="userSpaceOnUse">
<stop stop-color="#484A44"/>
<stop offset="0.651635" stop-color="#2F322D"/>
</linearGradient>
<linearGradient id="paint7_linear_132_46" x1="79.7344" y1="-9" x2="62.0347" y2="70.0672" gradientUnits="userSpaceOnUse">
<stop stop-color="#484A44"/>
<stop offset="0.651635" stop-color="#2F322D"/>
</linearGradient>
<linearGradient id="paint8_linear_132_46" x1="79.7344" y1="-9" x2="62.0347" y2="70.0672" gradientUnits="userSpaceOnUse">
<stop stop-color="#484A44"/>
<stop offset="0.651635" stop-color="#2F322D"/>
</linearGradient>
<linearGradient id="paint9_linear_132_46" x1="79.7344" y1="-9" x2="62.0347" y2="70.0672" gradientUnits="userSpaceOnUse">
<stop stop-color="#484A44"/>
<stop offset="0.651635" stop-color="#2F322D"/>
</linearGradient>
<linearGradient id="paint10_linear_132_46" x1="79.7344" y1="-9" x2="62.0347" y2="70.0672" gradientUnits="userSpaceOnUse">
<stop stop-color="#484A44"/>
<stop offset="0.651635" stop-color="#2F322D"/>
</linearGradient>
<linearGradient id="paint11_linear_132_46" x1="79.7344" y1="-9" x2="62.0347" y2="70.0672" gradientUnits="userSpaceOnUse">
<stop stop-color="#484A44"/>
<stop offset="0.651635" stop-color="#2F322D"/>
</linearGradient>
<linearGradient id="paint12_linear_132_46" x1="79.7344" y1="-9" x2="62.0347" y2="70.0672" gradientUnits="userSpaceOnUse">
<stop stop-color="#484A44"/>
<stop offset="0.651635" stop-color="#2F322D"/>
</linearGradient>
<linearGradient id="paint13_linear_132_46" x1="79.7344" y1="-9" x2="62.0347" y2="70.0672" gradientUnits="userSpaceOnUse">
<stop stop-color="#484A44"/>
<stop offset="0.651635" stop-color="#2F322D"/>
</linearGradient>
</defs>
</svg>
