<svg width="144" height="51" viewBox="0 0 144 51" fill="none" xmlns="http://www.w3.org/2000/svg">
<mask id="mask0_629_12016" style="mask-type:alpha" maskUnits="userSpaceOnUse" x="0" y="0" width="144" height="51">
<rect x="0.671875" y="0.155762" width="143" height="50" fill="#D9D9D9"/>
</mask>
<g mask="url(#mask0_629_12016)">
<path d="M61.2557 41.8726L61.0622 42.337C62.0524 41.8726 63.1223 41.4195 64.2718 40.9325C65.0344 40.6833 65.4441 40.3321 65.7173 40.0603C65.797 40.0037 65.8083 39.9017 65.9108 39.8791L66.036 39.8338C66.0701 39.8224 66.1839 39.7998 65.9221 39.8677C65.7514 39.913 65.5807 39.9584 65.3872 39.9923L65.1141 40.0376L64.9433 40.083C64.7157 40.1396 64.4653 40.1849 64.1922 40.1962C64.1694 40.1962 64.1922 40.1962 64.2832 40.1849L64.3629 40.1736C64.3743 40.1736 64.4084 40.1736 64.397 40.1736L64.2149 40.1962C63.9645 40.2302 63.7255 40.2642 63.4865 40.3208C63.0085 40.4228 62.5418 40.57 62.2004 40.8305C61.8476 41.091 61.4264 41.4082 61.2557 41.8726Z" fill="url(#paint0_linear_629_12016)"/>
<path d="M48.6563 64.0846C49.2482 64.0619 49.8286 64.0279 50.3977 63.9713C50.4205 63.8807 50.4432 63.7901 50.4888 63.6768C49.8742 63.8241 49.2596 63.9486 48.6563 64.0846Z" fill="url(#paint1_linear_629_12016)"/>
<path d="M58.8542 50.2092C58.6152 49.4276 58.1486 49.0538 57.6478 48.7253C57.1584 48.3855 56.6007 48.1477 56.1454 47.7512C55.656 48.8499 55.0186 50.0166 54.074 51.2286C53.1521 52.5991 52.5602 53.981 52.1732 55.5101C52.8789 55.714 53.8008 56.0425 54.2333 56.6088C54.3357 55.9632 54.3471 55.9745 53.687 55.8726C54.3471 55.9859 55.6218 56.1444 55.6218 56.1444C56.043 55.5441 56.0316 54.7399 55.7812 54.0037C55.5422 53.2108 55.0755 52.4632 54.5292 52.0215C55.5763 52.2253 56.9876 52.5425 58.1258 52.5991C58.2965 52.0894 58.4786 51.591 58.6493 51.0927C58.5583 50.7302 58.4217 50.3904 58.2737 50.1412L58.8542 50.2092Z" fill="url(#paint2_linear_629_12016)"/>
<path d="M64.7271 40.8758L64.4995 40.7173C64.3515 40.6266 64.1922 40.5247 63.9987 40.4454L63.8507 40.3888L63.7824 40.3548L63.6458 40.2982C63.7255 40.3321 63.771 40.3548 63.8621 40.4001C64.0214 40.4681 64.1808 40.536 64.3174 40.6153C64.5222 40.7286 64.5905 40.8079 64.9661 41.0231L65.0799 41.091C65.0344 41.0571 64.9661 41.0117 64.7043 40.8645L64.7499 40.8872C64.9889 41.0344 65.2279 41.1817 65.4441 41.3516L65.262 41.2156C65.8197 41.6461 66.753 42.4503 66.8782 42.6202C66.7871 42.5296 66.4798 42.2011 66.0018 41.8273C65.5921 41.4875 65.2279 41.159 64.7271 40.8758Z" fill="url(#paint3_linear_629_12016)"/>
<path d="M75.4257 57.7189C75.0046 56.3936 74.5607 55.0684 74.1624 53.6978C74.1851 54.0829 74.06 53.7884 73.8778 53.4939C73.673 53.1881 73.5592 52.905 73.6844 53.2561C70.9756 46.4373 68.483 44.0587 65.2506 41.0457C63.4637 39.5506 61.9614 38.871 60.3452 38.8483C58.7518 38.8143 57.2608 39.5846 55.5536 40.8192C56.2706 41.2043 57.4657 40.9891 57.7388 41.6461C58.1486 41.3516 58.4103 41.1024 58.49 40.8872C58.5697 40.6606 58.5014 40.4681 58.3193 40.2415C58.5811 40.57 58.7632 40.8872 58.8656 41.2609C58.968 41.1024 59.207 40.9891 59.6395 40.9551C59.9127 40.9778 60.0606 41.0117 60.1403 41.0797C60.937 40.6719 61.6996 40.3888 62.5646 40.2868C62.7808 40.2642 63.0085 40.2528 63.2247 40.2528H63.6345H63.5775L63.441 40.2415C63.3841 40.2302 63.3385 40.2302 63.3727 40.2302C63.441 40.2528 63.2816 40.2189 63.4068 40.2415C63.4979 40.2642 63.5775 40.2868 63.6458 40.3208C63.7369 40.3774 64.2946 40.5927 64.4995 40.7626L64.6702 40.8872L64.932 41.0457C65.0913 41.1477 65.2165 41.2383 65.3303 41.3176C65.7514 41.6461 65.8652 41.782 65.8311 41.7367C67.3562 42.9373 69.1773 45.1914 70.2471 46.913C72.1365 49.7674 73.5364 52.7124 74.5949 55.5215C74.7884 55.9745 74.9591 56.4276 75.1184 56.8694C75.1867 57.0846 75.2664 57.2998 75.3347 57.515L75.3575 57.5943C75.3688 57.6169 75.3461 57.5716 75.3461 57.5603L75.3005 57.447L75.2209 57.2092L75.4257 57.7189Z" fill="url(#paint4_linear_629_12016)"/>
<path d="M118.038 25.3127C116.764 26.7399 115.546 28.3143 114.362 29.7755C114.055 30.138 113.713 30.4664 113.395 30.7836L112.905 31.248L112.655 31.4632L112.53 31.5651L112.78 31.3839C113.417 30.8855 113.93 30.4551 114.612 30.002C114.942 29.7755 115.284 29.5603 115.637 29.3564C115.933 29.1639 116.16 28.9939 116.445 28.824C116.718 28.6541 117.014 28.4956 117.31 28.3483C117.446 28.2804 117.651 28.2011 117.742 28.1444L118.061 27.9745C118.459 27.7593 119.097 27.5894 119.29 27.5101C119.438 27.4648 119.598 27.4308 119.768 27.4082C119.859 27.3855 119.893 27.3742 119.962 27.3742H120.076C120.121 27.3742 120.041 27.3742 120.041 27.3742C120.007 27.3742 119.973 27.3629 119.95 27.3629C119.825 27.3516 119.654 27.3289 119.518 27.2949L119.302 27.227C119.165 27.193 119.017 27.159 118.88 27.1137C118.585 27.0231 118.402 26.9325 118.038 26.7965C117.606 26.638 117.173 26.4567 116.764 26.2415C116.206 25.947 115.648 25.6639 115.102 25.3807C114.783 25.2108 114.476 25.0295 114.169 24.837L113.713 24.5538C113.565 24.4519 113.44 24.3726 113.144 24.2027C112.143 23.6137 111.164 23.002 110.208 22.3451C109.73 22.0166 109.252 21.6881 108.785 21.337L106.304 19.6493L105.667 19.2075L105.655 19.1962L105.587 19.1622L105.336 19.2868C105.291 19.3095 105.257 19.3208 105.211 19.3548L105.029 19.4907L104.665 19.7512L103.083 20.9066L108.421 24.18C108.694 24.3499 108.967 24.5425 109.229 24.7464C109.491 24.9503 109.787 25.2221 109.935 25.3354C110.117 25.4826 110.299 25.6525 110.47 25.8338L110.595 25.9697L110.674 26.0376L110.834 26.1962L110.982 26.3774L111.073 26.5134C111.107 26.5587 111.152 26.604 111.187 26.6719C111.221 26.7286 111.198 26.7059 111.198 26.6833L111.175 26.6493C111.164 26.6266 111.175 26.6493 111.096 26.502C111.039 26.4001 111.004 26.2982 110.97 26.1962C110.891 26.0037 110.822 25.8111 110.765 25.6185L110.561 24.8823L110.47 24.4632C110.447 24.3386 110.424 24.18 110.378 23.9762C110.299 23.6024 110.253 23.2173 110.219 22.8548C110.185 22.481 110.105 21.9373 110.083 21.4842L110.026 19.9438C110.003 19.3661 110.026 18.8224 110.06 18.2334C110.048 18.4486 110.037 18.6639 110.037 18.8791C110.037 18.8904 110.037 18.8904 110.037 18.8677V18.7998V18.8791C110.026 19.3095 110.026 19.7399 110.014 20.159C109.923 21.8127 109.73 23.3758 109.035 24.4292C108.683 24.9616 108.307 24.4972 107.954 24.0215C107.624 23.5684 107.317 23.0813 106.998 23.6817C105.78 24.7577 104.688 25.947 103.515 26.9551C102.343 27.9519 101.08 28.7787 99.3042 28.96C99.4067 30.138 98.6099 32.3694 99.1904 32.7431C99.6229 34.1137 100.351 35.2351 101.41 35.7674C102.457 36.2998 103.868 36.2318 105.439 35.1897C105.883 34.8839 106.258 35.8127 106.361 36.8888C106.452 37.9648 106.201 39.2334 105.109 39.5506C106.258 40.2642 107.396 40.2642 108.409 40.0603C109.434 39.8451 110.344 39.46 111.289 39.3467C112.621 39.0522 113.417 39.1768 114.032 39.6752C114.647 40.1849 115.045 41.0684 115.341 42.1444C115.637 43.2205 115.819 44.4778 116.138 45.6784C116.456 46.8791 116.9 48.0571 117.959 48.782C118.778 49.6768 119.78 50.1978 120.918 50.2771C122.978 48.2496 124.457 45.7464 125.3 43.3564C126.187 40.9438 126.324 38.5651 126.256 36.481L125.994 36.8321C125.789 35.303 125.687 33.7059 125.55 32.1088C125.493 31.4859 126.096 31.1461 126.711 30.5797C127.326 30.07 127.917 29.2318 127.633 28.4276C127.53 26.9891 126.757 25.5506 125.778 24.803C124.81 23.9988 123.718 23.7043 122.716 23.625C120.702 23.4664 118.937 24.1914 118.038 25.3127Z" fill="url(#paint5_linear_629_12016)"/>
<path d="M98.553 11.8564C99.8619 11.2901 101.023 11.0522 102.081 11.0069C101.398 9.12664 100.67 7.2124 99.6571 5.21887C98.9286 5.71725 98.0864 6.159 97.3466 6.66871C98.4392 7.85803 98.849 9.46644 98.553 11.8564Z" fill="url(#paint6_linear_629_12016)"/>
<path d="M112.347 53.8224C112.632 51.9648 112.086 51.0247 111.323 50.1525C110.583 49.2577 109.582 48.4535 108.899 46.8904C107.123 47.9778 105.587 48.1363 104.471 47.5813C103.345 47.0263 102.605 45.7351 102.263 43.8095C101.911 44.6703 100.932 43.7189 100.385 43.9567C100.75 43.1072 100.249 41.3176 101.33 40.8192C100.238 41.3176 99.8164 39.5053 98.8831 40.57C97.984 38.9842 100.738 38.4519 100.363 36.6509C97.3238 38.3499 95.4686 36.8774 95.0475 34.6234C94.5923 32.358 95.4573 29.2771 97.1417 27.3855C98.5758 25.5959 100.055 24.9616 101.808 22.2884C103.561 19.6153 104.494 21.994 105.405 23.138C105.678 21.1671 104.437 19.7059 105.997 18.0522C107.249 17.2027 108.444 15.8774 109.286 14.1444C108.557 14.1671 107.271 14.4956 105.974 14.5409C104.688 14.5862 103.413 14.3596 102.969 13.4648C102.673 12.638 102.377 11.8111 102.081 10.9842C101.023 11.0295 99.8619 11.2787 98.553 11.8338C98.849 9.44379 98.4506 7.83537 97.358 6.63473C96.4247 7.23505 95.5028 7.86935 94.854 8.69621C94.2053 9.37583 93.989 9.9988 94.0573 10.6105C94.1256 11.2334 94.5467 11.8677 94.9223 12.4907C95.7532 13.748 96.6637 15.0053 96.5157 16.6024C94.046 16.4891 91.7013 17.7011 90.1193 19.7059C88.5714 21.7221 87.6154 24.4179 87.3536 27.0344C87.1487 30.2626 87.2853 32.6639 88.0479 35.5182C88.6739 36.549 89.8575 37.4211 91.4851 36.8774C90.9502 37.0587 89.3226 37.591 89.3681 38.1914C90.7339 40.8645 90.1079 44.9422 93.8069 45.0668C93.3517 45.871 93.4883 46.4939 92.316 46.8564C94.6492 46.1088 91.7924 50.3338 94.2167 49.5862C94.2394 50.9228 93.7728 52.769 93.659 54.3548C93.5452 55.9292 93.8183 57.2545 95.4459 57.5037C96.4133 57.515 97.0848 57.7415 97.6767 58.0473C100.477 57.1752 103.333 56.5975 107.021 56.4503C109.661 56.3483 112.518 55.6234 115.181 54.3208C113.736 54.5927 112.586 54.5813 112.347 53.8224Z" fill="url(#paint7_linear_629_12016)"/>
<path d="M117.97 48.7593C116.911 48.0344 116.468 46.8451 116.149 45.6558C115.842 44.4551 115.659 43.1865 115.352 42.1218C115.056 41.0457 114.658 40.1622 114.043 39.6525C113.429 39.1541 112.621 39.0295 111.3 39.324C110.356 39.4373 109.445 39.8338 108.421 40.0376C107.408 40.2415 106.27 40.2415 105.12 39.5279C106.213 39.2221 106.463 37.9422 106.372 36.8661C106.281 35.7901 105.894 34.8613 105.45 35.1671C103.88 36.2092 102.468 36.2771 101.421 35.7448C100.363 35.2237 99.6343 34.091 99.2018 32.7205C98.6213 32.3467 99.418 30.1153 99.3156 28.9373C101.091 28.7674 102.354 27.9292 103.527 26.9325C104.688 25.9244 105.792 24.7351 107.01 23.659C107.317 23.0587 107.636 23.5344 107.966 23.9988C108.307 24.4745 108.694 24.9389 109.047 24.4066C109.741 23.3532 109.935 21.7901 110.026 20.1363C110.037 19.7059 110.037 19.2868 110.048 18.8564V18.7771V18.8451C110.048 18.8564 110.048 18.8564 110.048 18.8564C110.06 18.6412 110.071 18.426 110.071 18.2108C110.071 17.6558 110.094 17.0894 110.139 16.5457L110.287 14.8127C110.265 14.7334 110.299 14.6995 110.208 14.6202C110.151 14.5522 110.071 14.4956 109.946 14.405C109.844 14.337 109.684 14.2464 109.513 14.1558C109.445 14.1444 109.388 14.1671 109.297 14.1558C108.455 15.8774 107.26 17.214 106.008 18.0635C104.449 19.7173 105.689 21.1784 105.416 23.1493C104.506 22.0053 103.572 19.6266 101.82 22.2998C100.067 24.9729 98.5872 25.5959 97.1531 27.3969C95.4573 29.2771 94.6036 32.358 95.0589 34.6347C95.48 36.8888 97.3352 38.3613 100.374 36.6622C100.75 38.4745 97.984 39.0069 98.8945 40.5813C99.8278 39.5166 100.249 41.3402 101.342 40.8305C100.26 41.3289 100.761 43.1185 100.397 43.9681C100.943 43.7302 101.922 44.6816 102.275 43.8208C102.616 45.7464 103.356 47.0263 104.483 47.5927C105.598 48.1477 107.135 47.9891 108.91 46.9017C109.593 48.4535 110.595 49.269 111.335 50.1639C112.097 51.0247 112.643 51.9762 112.359 53.8338C112.598 54.5813 113.747 54.604 115.181 54.3661C117.264 53.358 119.29 51.9422 120.941 50.2658C119.791 50.1752 118.789 49.6541 117.97 48.7593Z" fill="url(#paint8_linear_629_12016)"/>
<path d="M95.4345 57.5376C93.8069 57.2885 93.5338 55.9632 93.6476 54.3888C93.7614 52.803 94.2281 50.9567 94.2053 49.6202C91.781 50.3677 94.6378 46.1428 92.3046 46.8904C93.4769 46.5166 93.3403 45.905 93.7956 45.1007C90.0966 44.9875 90.7225 40.9098 89.3568 38.2253C89.2999 37.6137 90.9274 37.0813 91.4737 36.9114C89.8462 37.4551 88.6625 36.5829 88.0365 35.5522C87.2739 32.6978 87.1374 30.2965 87.3422 27.0684C87.604 24.4406 88.56 21.7561 90.1079 19.7399C91.7013 17.7464 94.0346 16.5231 96.5044 16.6363C96.6523 15.0393 95.7532 13.782 94.9109 12.5247C94.524 11.9017 94.1142 11.2674 94.046 10.6444C93.9777 10.0328 94.1939 9.40981 94.8427 8.7302C95.5028 7.90334 96.4133 7.2577 97.3466 6.66871C97.0165 6.30625 96.584 5.96644 96.1402 5.67194C95.9467 5.53602 95.7987 5.44541 95.6052 5.34346L95.3321 5.20754L95.1272 5.11693L94.6947 4.91304C93.511 4.43731 92.2363 3.97291 91.0185 3.70107C90.3925 3.55382 89.7665 3.4179 89.1405 3.2933C88.4804 3.15738 88.0023 3.13473 87.4219 3.05544C82.9148 2.59104 79.4207 3.23667 76.4728 3.70107C76.3021 5.02631 76.4842 6.07971 77.3606 6.55544C78.1915 7.14443 78.8402 7.75609 79.3296 8.37906C79.8418 9.01337 80.2288 9.68165 80.4905 10.3499C81.0368 11.6865 81.1734 13.0684 81.2531 14.4616C81.4238 17.282 81.4466 20.091 82.9034 23.0813C83.04 23.3872 83.279 23.6817 83.5294 23.9875C83.8026 24.3046 84.1099 24.6218 84.3944 24.9163C84.9749 25.4826 85.4415 26.0943 85.5212 26.3888C85.6008 27.3742 85.3163 28.2577 85.0318 29.1299C84.7245 30.002 84.3261 30.8516 83.9278 31.6897C83.1311 33.3774 82.3457 35.0765 82.2547 36.9794C82.0384 37.3871 82.5392 37.4778 83.0514 37.6477C83.5863 37.8289 84.1212 38.0894 83.905 38.7804C83.5408 41.3742 81.5604 44.4891 82.7555 45.9503C84.3261 48.1477 85.009 50.7642 85.3163 53.5279C85.6236 56.2917 85.5439 59.2253 85.783 62.1363C89.6641 61.2075 93.5338 59.3613 97.6539 58.07C97.0734 57.7755 96.4019 57.5603 95.4345 57.5376Z" fill="url(#paint9_linear_629_12016)"/>
<path d="M18.6432 24.7351C17.7782 27.7253 17.2774 30.8402 16.936 33.7965C16.6173 36.7415 16.6401 39.5053 16.7311 42.2351C16.8677 40.6493 17.0953 39.1202 17.3685 37.6703C17.6416 36.2205 17.9831 34.8499 18.427 33.4907C19.3033 30.8176 20.3277 28.3823 21.5341 26.4001C23.9356 22.2318 26.5989 19.7173 29.1256 17.803C30.3434 16.9988 31.5499 16.3418 32.7222 15.8208C33.3026 15.5603 33.8945 15.3224 34.4408 15.1412C34.9757 14.9939 35.5107 14.8807 36.0342 14.7787C38.117 14.405 40.1316 14.2917 41.8843 14.6655C42.1802 14.7334 42.6469 14.5749 43.2387 14.269C43.8306 13.9632 44.5704 13.4875 45.3102 13.0684C46.0613 12.638 46.9605 12.0716 47.8369 11.6072C48.6905 11.1655 49.6124 10.7011 50.5343 10.2933C54.165 8.75285 57.5567 8.37906 59.0477 10.4292C59.2639 12.2982 57.7502 14.0085 55.5991 15.7302C57.0901 15.8208 58.342 16.1946 59.4802 16.6363C60.5956 17.1234 61.5744 17.7124 62.4622 18.392C64.2035 19.7739 65.5693 21.405 66.7758 23.1266C69.1659 26.5247 71.0325 30.104 73.3088 32.6185C75.5851 35.1558 77.224 38.769 77.6451 42.7448C77.7476 43.7415 77.7817 44.7609 77.7703 45.7804C77.7476 46.8111 77.6224 47.8532 77.4858 48.8952L77.4289 49.2804C77.4175 49.3936 77.4289 49.303 77.4289 49.269L77.4517 49.1558L77.5199 48.7253L77.6565 48.0004L77.7931 47.1283C77.8045 46.981 78.2256 44.6477 79.1247 41.7367C79.3979 40.9664 79.6483 40.3208 79.9897 39.5959C80.1605 39.2334 80.3426 38.8823 80.5474 38.5198L80.6271 38.3839C76.4273 47.9664 90.0283 16.9308 71.2146 59.8596V59.871L71.226 59.8936L71.2373 59.9276L71.2942 60.0749L71.4194 60.3807C71.8747 61.2528 71.7381 61.8872 71.8861 62.7027C72.899 62.1024 74.1055 61.5813 75.3347 61.1849C75.0046 58.625 75.1298 56.303 75.9038 53.981C77.2468 50.1185 78.3849 46.8677 78.3736 43.6736V43.4923C79.3751 41.2043 76.1314 48.6121 80.6271 38.3613L80.6043 38.3952L80.5702 38.4632L80.4222 38.7351L80.1263 39.3127C79.9328 39.7092 79.7393 40.1283 79.5686 40.57L79.3182 41.2156L79.432 40.7399C79.5003 40.4228 79.5572 40.1056 79.5914 39.7885C79.6369 39.1541 79.5345 38.5312 79.3979 37.9082C79.193 37.3192 78.9654 36.6849 78.5671 36.1299C78.1004 35.2237 78.1118 33.0829 78.2142 30.9762C78.3167 28.8694 78.5215 26.7739 78.0776 25.9697C76.3135 22.2431 74.4925 18.9244 72.5804 15.5943C70.6569 12.3095 68.6423 9.03602 66.0132 5.70592C64.9092 4.00689 62.7695 2.08133 59.9241 0.45026C58.9225 0.654144 57.8982 0.925988 56.8966 1.20916C55.8609 1.51498 54.8138 1.87744 53.778 2.20592C52.6854 2.59104 51.5814 2.97615 50.4432 3.34994C49.2368 3.79168 48.0645 4.16547 46.7442 4.59589C45.8792 5.13958 45.0712 5.62664 44.32 6.04573C43.5574 6.46482 42.7493 6.9632 42.0323 7.32566C41.2925 7.7221 40.6551 7.99395 39.9495 8.35641C39.2438 8.70754 38.5837 9.00204 37.9463 9.26256C37.3089 9.52308 36.7171 9.73829 36.1366 9.90819C35.5448 10.1121 34.9302 10.3386 34.3611 10.5085C33.223 10.8596 32.1645 11.1088 31.1401 11.3354C30.1499 11.5166 29.0915 11.8791 28.0785 12.2868C27.0542 12.7059 26.0298 13.2383 24.9941 14.0312C24.7323 14.2237 24.4706 14.4389 24.2088 14.6768C23.947 14.926 23.6625 15.2318 23.3893 15.5376C22.8316 16.1606 22.2739 16.8855 21.7276 17.7351C21.1699 18.5846 20.635 19.5134 20.1114 20.6347C19.5993 21.8807 19.0871 23.2286 18.6432 24.7351Z" fill="url(#paint10_linear_629_12016)"/>
<path d="M82.7668 45.9616C81.5832 44.5004 83.5522 41.3855 83.9164 38.7917C84.1326 38.0894 83.5977 37.8402 83.0628 37.659C82.5506 37.4891 82.0384 37.3985 82.2661 36.9907C82.3457 35.0878 83.1424 33.4001 83.9391 31.7011C84.3375 30.8516 84.7358 30.0134 85.0432 29.1412C85.3277 28.2577 85.6236 27.3855 85.5326 26.4001C85.4529 26.1056 84.9749 25.4939 84.4058 24.9276C84.1212 24.6331 83.8139 24.316 83.5408 23.9988C83.279 23.7043 83.0514 23.3985 82.9148 23.0927C81.458 20.1024 81.4238 17.2933 81.2645 14.4729C81.1848 13.0797 81.0368 11.7092 80.5019 10.3613C80.2288 9.69298 79.8532 9.02469 79.341 8.39039C78.8402 7.75608 78.2028 7.14443 77.372 6.56676C76.507 6.09104 76.3249 5.03764 76.4842 3.7124C76.4728 3.7124 76.4501 3.72372 76.4273 3.72372C77.3606 1.08456 73.5592 1.1412 72.6714 1.24314C70.3837 1.40172 68.8017 1.27712 67.2538 1.02793C65.6831 0.756085 64.2035 0.370972 62.189 0.155762C61.4378 0.23505 60.698 0.348318 59.9468 0.484241C62.7922 2.11531 64.932 4.04087 66.036 5.7399C68.6651 9.07 70.6796 12.3321 72.6031 15.6283C74.5152 18.947 76.3363 22.2771 78.1004 26.0037C78.5557 26.8079 78.3394 28.9033 78.237 31.0101C78.1232 33.1169 78.1118 35.2577 78.5898 36.1639C78.9882 36.7189 79.2158 37.3532 79.4207 37.9422C79.5572 38.5651 79.6597 39.1881 79.6142 39.8224C79.58 40.1396 79.5231 40.4567 79.4548 40.7739L79.341 41.2496L79.5914 40.604C79.7735 40.1622 79.9556 39.7431 80.1491 39.3467L80.445 38.769L80.593 38.4972L80.6271 38.4292L80.6499 38.3952C76.1542 48.646 79.4093 41.2383 78.3963 43.5263V43.7075C78.4077 46.9017 77.2582 50.1525 75.9265 54.015C75.1526 56.337 75.0274 58.659 75.3575 61.2189C76.3932 60.8791 77.4517 60.6299 78.4874 60.5166C79.0565 60.358 79.4548 60.9017 79.7052 61.4907C79.9442 62.0797 80.0694 62.714 80.0694 62.714C81.9018 62.8839 83.8595 62.646 85.7943 62.1703C85.5553 59.2593 85.6236 56.3257 85.3277 53.5619C85.0204 50.7755 84.3375 48.159 82.7668 45.9616Z" fill="url(#paint11_linear_629_12016)"/>
<path d="M19.6903 57.8548C20.3163 58.8402 20.9764 59.8823 21.6138 60.8791C21.9439 61.4001 22.2739 61.9098 22.5812 62.3969C22.8658 62.8273 23.1389 63.2237 23.3893 63.6088C24.9713 65.7496 25.3242 66.8257 25.4152 67.7092C25.4721 68.5134 25.2559 69.0457 25.8136 69.9519L25.7339 68.9325C25.9502 69.3402 26.2006 69.748 26.4396 70.1558C26.6786 68.7172 27.0883 67.4486 27.7029 66.3952C28.2834 65.2512 29.0915 64.3791 30.1386 63.8014C29.4101 62.5781 28.8411 61.3888 28.5338 60.3354C28.4541 60.0635 28.3972 59.8257 28.3403 59.5538C28.2834 59.2706 28.2378 58.9875 28.2265 58.727C28.1809 58.2059 28.2265 57.7415 28.3403 57.3451C28.7614 56.0085 29.2849 54.7626 29.854 53.5959C30.1499 53.0409 30.4345 52.3613 30.7418 51.7383C31.0491 51.1153 31.3678 50.5037 31.6978 49.892C32.358 48.6687 33.0409 47.57 33.7693 46.3354C34.4977 45.0554 35.2603 43.7868 36.057 42.5182C37.6618 39.913 39.5056 37.0473 41.8388 34.2043C44.2289 31.4066 47.1767 28.9033 50.2725 27.1703C51.4903 26.4114 52.4692 26.6946 53.3569 27.3629C54.2561 28.0198 55.0983 29.0732 56.0316 30.1266C57.8982 32.2674 60.1745 34.2723 62.5077 34.8952C64.0442 35.303 66.0018 34.5101 67.3107 37.1153C68.0846 38.8483 68.5854 40.8418 69.2456 42.5749C69.9171 44.3192 70.6 45.7917 71.4991 46.7771C73.5592 48.7933 75.5054 51.9308 76.2794 55.7253C76.4728 56.6881 76.6094 57.6849 76.7005 58.693L76.746 59.4745L76.7688 60.1088L76.7574 59.1121C76.7574 58.5117 76.7688 57.9114 76.7688 57.2998C76.7801 56.926 76.7915 56.5522 76.8143 56.1784C76.8598 55.3176 76.9053 54.502 76.9622 53.6752C77.0192 52.7577 77.1671 51.8969 77.2582 50.8548C77.3606 49.8467 77.5313 48.816 77.7362 47.7626C77.8842 46.6978 78.1118 45.6218 78.4077 44.5344C78.6581 43.4697 78.9085 42.4276 79.3068 41.3742C79.6711 40.3548 80.058 39.4713 80.5816 38.5425L80.6613 38.3839C58.1827 89.6493 74.4242 52.5991 69.4163 64.0393H69.4277L69.5187 64.0053L69.7122 63.9373L70.0878 63.8014C70.3154 63.6995 70.6455 63.6315 70.8048 63.4956C71.169 63.2464 71.4763 62.9519 71.9202 62.714C71.7723 61.9098 71.9088 61.2642 71.4536 60.392L71.3284 60.0862L71.2715 59.9389L71.2601 59.9049L71.2487 59.8823V59.871C90.0624 16.9422 76.4615 47.9778 80.6613 38.3952L80.5816 38.5312C80.3767 38.8936 80.1946 39.2561 80.0239 39.6072C79.6824 40.3321 79.432 40.9778 79.1589 41.748C78.2597 44.659 77.8386 46.9923 77.8272 47.1396L77.6907 48.0117L77.5541 48.7367L77.4858 49.1671L77.463 49.2804C77.463 49.3143 77.4403 49.3936 77.463 49.2917L77.5199 48.9066C77.6565 47.8645 77.7817 46.8224 77.8045 45.7917C77.8159 44.7723 77.7817 43.7528 77.6793 42.7561C77.2582 38.7804 75.6192 35.1671 73.3429 32.6299C71.0666 30.1153 69.2 26.536 66.8099 23.138C65.6035 21.4163 64.2377 19.7965 62.4963 18.4033C61.6199 17.7351 60.6297 17.1461 59.5143 16.6477C58.3762 16.2059 57.1242 15.8321 55.6332 15.7415C57.7843 14.0198 59.2981 12.3095 59.0818 10.4406C57.5909 8.39039 54.1878 8.76418 50.5684 10.3046C49.6465 10.7124 48.7246 11.1768 47.871 11.6185C46.9946 12.0829 46.0955 12.6493 45.3443 13.0797C44.6045 13.4988 43.8533 13.9745 43.2729 14.2804C42.681 14.5862 42.2258 14.7448 41.9185 14.6768C40.1771 14.303 38.1512 14.4163 36.0684 14.7901C35.5448 14.892 35.0099 15.0053 34.4749 15.1525C33.9172 15.3338 33.3368 15.5716 32.7563 15.8321C31.584 16.3532 30.389 17.0101 29.1598 17.8143C26.633 19.7173 23.9698 22.2318 21.5683 26.4114C20.3618 28.3936 19.3375 30.8289 18.4611 33.502C18.0172 34.8613 17.6758 36.2318 17.4026 37.6817C17.1181 39.1315 16.9018 40.6606 16.7652 42.2464C16.8449 43.8548 17.0156 45.248 17.1977 46.7318C17.2888 47.4567 17.4026 48.1817 17.5164 48.8952C17.6302 49.6088 17.7554 50.3338 17.892 50.9114C18.1538 52.1234 18.4383 53.3354 18.757 54.5247C19.0302 55.6574 19.3944 56.9713 19.6903 57.8548Z" fill="url(#paint12_linear_629_12016)"/>
<path d="M71.5105 46.7884C70.6114 45.803 69.9285 44.3305 69.2569 42.5862C68.5968 40.8532 68.096 38.871 67.3221 37.1266C66.0132 34.5328 64.0442 35.3143 62.5191 34.9066C60.1972 34.2836 57.9209 32.2787 56.043 30.138C55.0983 29.0846 54.2561 28.0312 53.3683 27.3742C52.4805 26.7059 51.5017 26.4228 50.2839 27.1817C47.1881 28.9147 44.2403 31.4066 41.8502 34.2156C39.5056 37.0587 37.6732 39.913 36.0684 42.5295C35.283 43.7982 34.5091 45.0668 33.7807 46.3467C33.0522 47.5813 32.3693 48.68 31.7092 49.9033C31.3792 50.5037 31.0605 51.1153 30.7532 51.7496C30.4459 52.3726 30.1613 53.0522 29.8654 53.6072C29.2963 54.7739 28.7728 56.0198 28.3517 57.3564C28.2265 57.7415 28.1923 58.2059 28.2378 58.7383C28.2606 58.9988 28.2948 59.2706 28.3517 59.5651C28.4086 59.837 28.4655 60.0749 28.5451 60.3467C28.8525 61.4001 29.4215 62.5894 30.1499 63.8127C30.9808 63.3483 31.971 63.0991 33.1091 62.9632C34.0652 62.748 33.9855 60.7092 33.9059 58.3645C33.8831 57.7642 33.8603 57.1412 33.8376 56.5182C33.8034 55.816 33.7807 55.1024 33.7693 54.4228C33.7693 53.7431 33.7807 53.0862 33.8262 52.4745C33.8603 52.1687 33.8831 51.8742 33.9059 51.591C33.94 51.2739 33.9741 50.9681 34.0197 50.6849C35.3513 48.9859 37.0472 49.337 38.8113 50.0846C39.6991 50.413 40.621 50.8661 41.5543 51.3418L42.9542 52.0668L44.3427 52.6105C45.0142 52.7464 45.6858 52.8596 46.3687 52.9616C46.3004 53.0635 46.2548 53.1541 46.2207 53.2448C46.7101 53.3807 47.1767 53.5166 47.632 53.5393C47.8255 52.3613 48.0986 51.1153 48.497 50.0506C48.3604 49.7787 48.2694 49.5182 48.2808 49.0991C48.4173 49.2011 48.5767 49.3143 48.7588 49.4163C49.3961 47.8532 50.3294 46.4373 51.5586 45.4066C52.7765 44.4891 53.7667 43.4697 54.5975 42.5975C54.4495 42.337 54.404 42.0312 54.404 41.6914C54.5065 41.9972 54.6772 42.1671 54.9048 42.269C56.4072 40.7173 57.7274 39.5053 59.3436 39.1768C60.9712 38.8483 62.5874 39.324 64.4881 40.638C66.3205 41.9406 67.618 43.3451 69.0635 45.1121C69.3821 45.5651 69.8033 46.0295 70.1219 46.5506C70.452 47.0603 70.7934 47.6266 71.1577 48.227C71.5105 48.8273 71.8633 49.4842 72.2161 50.1978C72.3982 50.5603 72.5804 50.9228 72.7625 51.3079L72.8307 51.4551L72.8194 51.4211L72.7625 51.2965C72.8763 51.5344 72.9673 51.7383 73.0584 51.9308C73.1267 52.0781 73.1836 52.2253 73.2632 52.3952C73.3088 52.4632 73.3998 52.6218 73.4795 52.769C73.6161 53.0635 73.7754 53.3694 73.7185 52.9842C73.9575 53.6639 74.1965 54.3321 74.4355 54.9891C74.629 55.5101 74.8225 56.0312 75.0046 56.5409C75.3005 57.3111 75.5623 58.2399 75.7444 58.7156C75.8355 59.0101 75.9265 59.2933 76.0176 59.5651C76.0631 59.7124 76.0973 59.8483 76.1428 59.9842C75.9721 59.4292 75.9493 59.316 75.8696 59.0781C75.7217 58.6363 75.5168 58.002 75.3347 57.447L75.4485 57.7982L75.5851 58.2286C75.8127 58.8742 76.0176 59.5198 76.1769 60.1088L76.3021 60.5959C76.2452 60.3467 76.1769 60.1088 76.12 59.8596C76.0062 59.3726 75.9038 58.8969 75.8127 58.4438C75.9493 59.0215 76.0745 59.5765 76.1997 60.0975C76.2566 60.324 76.3135 60.5393 76.359 60.7545C76.3135 60.6185 76.2566 60.3354 76.1883 60.1088C76.0973 59.7917 76.0062 59.4859 75.9151 59.18C76.1314 59.8596 76.3363 60.6752 76.4842 61.1736C76.5525 61.4681 76.6322 61.7512 76.7005 62.0457L76.8598 62.7593L76.9509 63.1897C76.9281 63.0765 76.9053 62.9519 76.8712 62.816L76.9395 63.1218C76.9623 63.2577 76.9964 63.4616 77.0419 63.6995C77.0419 63.6995 77.0533 63.7901 77.0419 63.7108C77.0305 63.6202 77.0192 63.5182 77.0078 63.4163C76.985 63.1444 76.9509 62.8613 76.9281 62.5668C76.9053 62.2723 76.8826 61.9551 76.8712 61.6153C76.8484 61.1056 76.8257 60.6525 76.8143 60.2561C76.7915 59.7124 76.8029 59.1574 76.8143 58.5457C76.8029 57.7982 76.8143 57.0279 76.8598 56.235C76.8484 56.6088 76.8371 56.9826 76.8143 57.3564C76.8143 57.9681 76.8029 58.5684 76.8029 59.1687L76.8143 60.1655L76.7915 59.5312L76.746 58.7496C76.6549 57.7415 76.5184 56.7448 76.3249 55.782C75.5054 51.9308 73.5706 48.8046 71.5105 46.7884Z" fill="url(#paint13_linear_629_12016)"/>
<path d="M38.074 26.7353C38.3857 26.5612 38.706 26.3436 39.035 26.0825C39.3813 25.8214 39.7103 25.5516 40.022 25.2731C40.3337 24.9946 40.6108 24.7335 40.8532 24.4899C41.1129 24.2288 41.3121 24.0025 41.4506 23.811C41.5545 23.6892 41.693 23.6282 41.8662 23.6282C42.1605 23.6282 42.3943 23.7414 42.5674 23.9677C42.7579 24.1765 42.8532 24.4028 42.8532 24.6465C42.8532 24.8206 42.8185 24.9685 42.7493 25.0904C42.5415 25.3689 42.2731 25.6822 41.9441 26.0303C41.6324 26.361 41.2601 26.7005 40.8272 27.0486C40.4116 27.3967 39.9528 27.7535 39.4506 28.1191C38.9484 28.4672 38.429 28.7979 37.8922 29.1112C37.5978 32.5403 36.8792 35.5342 35.7364 38.0929C34.6108 40.6342 33.165 42.7578 31.3988 44.4636C29.6499 46.1694 27.6412 47.4488 25.3729 48.3017C23.1218 49.1372 20.7236 49.5549 18.1781 49.5549C16.7929 49.5549 15.3903 49.407 13.9704 49.1111C12.5678 48.8152 11.2172 48.3626 9.91851 47.7534C8.61983 47.1268 7.40772 46.3435 6.28219 45.4035C5.15667 44.4462 4.17832 43.3148 3.34717 42.0093C2.51601 40.6864 1.85801 39.1895 1.37316 37.5185C0.905638 35.8301 0.671875 33.9415 0.671875 31.8527C0.671875 29.7814 0.914296 27.8232 1.39914 25.9781C1.9013 24.1156 2.62856 22.3924 3.58093 20.8084C4.55061 19.207 5.73675 17.771 7.13933 16.5004C8.54191 15.2123 10.1609 14.107 11.9964 13.1845C12.1349 13.1148 12.2908 13.08 12.4639 13.08C12.7064 13.08 12.9315 13.1671 13.1392 13.3411C13.347 13.5152 13.4509 13.7502 13.4509 14.0461C13.4509 14.2375 13.3903 14.4203 13.2691 14.5944C13.1652 14.751 13.018 14.8729 12.8276 14.9599C12.7237 15.0121 12.3947 15.1775 11.8406 15.456C11.3038 15.7171 10.6544 16.1261 9.89254 16.6831C9.14796 17.2401 8.34277 17.9538 7.47698 18.8241C6.62851 19.677 5.84064 20.7214 5.11338 21.9572C4.40343 23.1931 3.80603 24.6291 3.32119 26.2653C2.85367 27.9015 2.6199 29.764 2.6199 31.8527C2.6199 33.7674 2.81903 35.4558 3.2173 36.918C3.63288 38.3801 4.17832 39.6595 4.85364 40.7561C5.52896 41.8526 6.29951 42.7839 7.1653 43.5498C8.04841 44.3156 8.94883 44.951 9.86656 45.4558C10.8016 45.9605 11.728 46.3609 12.6457 46.6568C13.5635 46.9527 14.4033 47.1703 15.1652 47.3095C15.9444 47.4488 16.6024 47.5358 17.1392 47.5706C17.676 47.6054 18.031 47.6228 18.2041 47.6228C20.3513 47.6228 22.4032 47.2834 24.3599 46.6046C26.3166 45.9257 28.0741 44.8813 29.6325 43.4714C31.191 42.0441 32.4983 40.2339 33.5546 38.0407C34.6282 35.8475 35.3554 33.2365 35.7364 30.2078C34.6108 30.7126 33.4334 31.113 32.2039 31.4089C30.9918 31.6874 29.7191 31.8266 28.3858 31.8266C26.5503 31.8266 24.7668 31.5916 23.0352 31.1217C21.3036 30.6343 19.7712 29.9119 18.4379 28.9546C17.1046 27.9798 16.031 26.7701 15.2171 25.3254C14.4033 23.8806 13.9964 22.1922 13.9964 20.2601C13.9964 18.6936 14.2648 17.2923 14.8016 16.0565C15.3557 14.8032 16.1003 13.7415 17.0353 12.8711C17.9704 11.9834 19.0526 11.3133 20.282 10.8607C21.5114 10.3907 22.8015 10.1558 24.1521 10.1558C25.2603 10.1558 26.3685 10.2863 27.4767 10.5474C28.6023 10.8085 29.6758 11.2175 30.6975 11.7745C31.7364 12.3141 32.6974 13.0017 33.5806 13.8372C34.481 14.6727 35.2602 15.6736 35.9182 16.8398C36.5935 18.006 37.1216 19.3376 37.5026 20.8345C37.8835 22.3141 38.074 23.9764 38.074 25.8214V26.7353ZM36.048 27.9624C36.1 27.2836 36.126 26.6047 36.126 25.9259C36.126 23.4542 35.7623 21.3393 35.0351 19.5813C34.3251 17.8232 33.3901 16.3872 32.2299 15.2732C31.0871 14.1592 29.797 13.3498 28.3598 12.845C26.9226 12.3228 25.4854 12.0618 24.0482 12.0618C22.94 12.0618 21.8924 12.2445 20.9054 12.6101C19.9357 12.9756 19.0786 13.5065 18.334 14.2027C17.6067 14.899 17.0266 15.7606 16.5938 16.7876C16.1782 17.7971 15.9704 18.9547 15.9704 20.2601C15.9704 21.5134 16.2301 22.7231 16.7496 23.8893C17.2864 25.0382 18.0743 26.0651 19.1132 26.9703C20.1521 27.858 21.4422 28.5716 22.9833 29.1112C24.5417 29.6334 26.3512 29.8945 28.4118 29.8945C29.8144 29.8945 31.1477 29.7205 32.4117 29.3723C33.6931 29.0242 34.9052 28.5542 36.048 27.9624Z" fill="#363832"/>
<path d="M51.7621 40.3122C51.5024 41.5306 51.1301 42.6707 50.6453 43.7325C50.1604 44.7769 49.641 45.6907 49.0868 46.474C48.5501 47.2573 48.0046 47.8752 47.4505 48.3278C46.8964 48.7804 46.4202 49.024 46.0219 49.0589C45.5717 49.0589 45.0696 48.8326 44.5155 48.38C43.9787 47.9275 43.4592 47.3008 42.9571 46.5001C42.4722 45.682 42.0653 44.716 41.7363 43.602C41.4073 42.488 41.2428 41.2782 41.2428 39.9728C41.2428 38.824 41.338 37.9536 41.5285 37.3618C41.7363 36.77 41.8662 36.4306 41.9181 36.3436C42.0047 36.1869 42.1172 36.0651 42.2558 35.978C42.4116 35.891 42.5848 35.8475 42.7752 35.8475C43.0696 35.8475 43.3034 35.9519 43.4765 36.1608C43.6497 36.3523 43.7363 36.5698 43.7363 36.8135C43.7363 36.9876 43.7016 37.1355 43.6324 37.2574C43.6151 37.2922 43.5371 37.5272 43.3986 37.9623C43.2601 38.3975 43.1908 39.0502 43.1908 39.9205C43.1908 40.9475 43.2947 41.8962 43.5025 42.7665C43.7103 43.6368 43.9614 44.3853 44.2557 45.0119C44.5501 45.6385 44.8531 46.1346 45.1648 46.5001C45.4938 46.8483 45.7622 47.0223 45.97 47.0223C46.1085 47.0223 46.3077 46.8918 46.5674 46.6307C46.8445 46.3696 47.1302 46.0128 47.4245 45.5602C47.7362 45.1076 48.0479 44.568 48.3596 43.9414C48.6886 43.3148 48.983 42.6359 49.2427 41.9049C49.5197 41.1564 49.7362 40.3731 49.892 39.555C50.0652 38.7195 50.1518 37.8753 50.1518 37.0224C50.1518 36.8483 50.1431 36.683 50.1258 36.5263C50.1258 36.3523 50.1258 36.1782 50.1258 36.0041C50.1258 35.7082 50.2124 35.4645 50.3855 35.2731C50.576 35.0642 50.8184 34.9598 51.1128 34.9598C51.3379 34.9598 51.537 35.0294 51.7102 35.1686C51.9007 35.3079 52.0219 35.4993 52.0738 35.743C52.0738 35.7256 52.1085 35.8649 52.1777 36.1608C52.247 36.4567 52.3595 36.8396 52.5154 37.3096C52.6885 37.7622 52.8963 38.2582 53.1387 38.7978C53.3985 39.3374 53.7015 39.8422 54.0478 40.3122C54.4115 40.7648 54.827 41.1477 55.2946 41.461C55.7621 41.7743 56.2989 41.931 56.9049 41.931C57.2339 41.931 57.5196 41.8614 57.7621 41.7221C58.0045 41.5829 58.2036 41.4262 58.3595 41.2521C58.5153 41.0781 58.6278 40.9127 58.6971 40.7561C58.7837 40.5994 58.827 40.5124 58.827 40.495C58.8962 40.3035 59.0088 40.1555 59.1646 40.0511C59.3378 39.9293 59.5283 39.8683 59.7361 39.8683C60.0131 39.8683 60.2469 39.9728 60.4374 40.1816C60.6278 40.3731 60.7231 40.5994 60.7231 40.8605C60.7231 40.9823 60.6971 41.1042 60.6451 41.226C60.5412 41.4697 60.3854 41.7482 60.1776 42.0615C59.9871 42.3748 59.7361 42.6707 59.4244 42.9492C59.1127 43.2277 58.7404 43.4627 58.3075 43.6542C57.8919 43.8283 57.4244 43.9153 56.9049 43.9153C56.2989 43.9153 55.7361 43.8109 55.2166 43.602C54.6972 43.3757 54.221 43.0972 53.7881 42.7665C53.3725 42.4184 52.9916 42.0354 52.6452 41.6177C52.2989 41.1825 52.0046 40.7473 51.7621 40.3122Z" fill="#363832"/>
<path d="M78.9306 41.2521C78.8614 41.3914 78.7142 41.6873 78.4891 42.1399C78.2813 42.575 78.0042 43.0798 77.6579 43.6542C77.3289 44.2286 76.9393 44.8291 76.4891 45.4558C76.0389 46.0824 75.5367 46.6568 74.9826 47.179C74.4285 47.7012 73.8311 48.1363 73.1904 48.4845C72.5498 48.8152 71.8744 48.9805 71.1645 48.9805C70.1602 48.9805 69.3117 48.6585 68.6191 48.0145C67.9437 47.3704 67.4502 46.5611 67.1386 45.5863C66.5498 46.5785 65.8485 47.3704 65.0347 47.9623C64.2209 48.5367 63.407 48.8239 62.5932 48.8239C61.9525 48.8239 61.3724 48.7107 60.8529 48.4845C60.3335 48.2408 59.8919 47.91 59.5283 47.4923C59.1646 47.0571 58.8789 46.5524 58.6711 45.9779C58.4807 45.4035 58.3854 44.7769 58.3854 44.0981C58.3854 42.7404 58.6105 41.548 59.0607 40.5211C59.5283 39.4767 60.117 38.6064 60.827 37.9101C61.5369 37.2139 62.3161 36.6917 63.1646 36.3436C64.0304 35.9954 64.8615 35.8214 65.6581 35.8214C66.1949 35.8214 66.6884 35.8997 67.1386 36.0563C67.5888 36.1956 67.9697 36.3523 68.2814 36.5263C68.6104 36.7004 68.8615 36.8657 69.0346 37.0224C69.2078 37.1616 69.303 37.24 69.3204 37.2574C69.5108 37.4837 69.6061 37.7187 69.6061 37.9623C69.6061 38.2234 69.5108 38.4584 69.3204 38.6673C69.1299 38.8588 68.9048 38.9545 68.645 38.9545C68.368 38.9545 68.1342 38.8588 67.9437 38.6673C67.9091 38.6325 67.8312 38.5716 67.71 38.4845C67.5888 38.3801 67.4243 38.2757 67.2165 38.1712C67.0087 38.0668 66.7576 37.9797 66.4632 37.9101C66.1862 37.8231 65.8659 37.7796 65.5022 37.7796C64.9654 37.7796 64.394 37.9014 63.788 38.1451C63.1819 38.3888 62.6278 38.7717 62.1256 39.2939C61.6235 39.7987 61.1992 40.4427 60.8529 41.226C60.5239 41.9919 60.3594 42.9057 60.3594 43.9675C60.3594 44.2982 60.3941 44.6377 60.4633 44.9858C60.5326 45.3165 60.6538 45.6211 60.827 45.8996C61.0001 46.1781 61.2339 46.4044 61.5282 46.5785C61.8226 46.7525 62.1862 46.8396 62.6191 46.8396C62.9308 46.8396 63.2858 46.7351 63.6841 46.5262C64.0996 46.3174 64.4893 45.9953 64.8529 45.5602C65.2338 45.125 65.5715 44.5767 65.8659 43.9153C66.1775 43.2539 66.394 42.4706 66.5152 41.5654C66.5498 41.3218 66.6624 41.1216 66.8529 40.9649C67.0433 40.7909 67.2684 40.7038 67.5282 40.7038C67.7706 40.7038 67.9784 40.7996 68.1515 40.991C68.342 41.1825 68.4459 41.4001 68.4632 41.6438C68.4805 41.9745 68.5152 42.4445 68.5671 43.0537C68.6191 43.6455 68.7316 44.2373 68.9048 44.8291C69.0953 45.4209 69.3723 45.9344 69.7359 46.3696C70.0996 46.8047 70.6017 47.0223 71.2424 47.0223C71.658 47.0223 72.0649 46.9092 72.4632 46.6829C72.8788 46.4566 73.277 46.1607 73.658 45.7952C74.0562 45.4122 74.4285 44.9858 74.7748 44.5158C75.1385 44.0284 75.4675 43.5411 75.7618 43.0537C76.0562 42.5663 76.3159 42.0963 76.541 41.6438C76.7662 41.1912 76.9566 40.7996 77.1125 40.4688C77.199 40.2774 77.3203 40.1294 77.4761 40.025C77.6493 39.9205 77.8311 39.8683 78.0215 39.8683C78.3159 39.8683 78.5497 39.9815 78.7228 40.2078C78.9133 40.4166 79.0085 40.6429 79.0085 40.8866C79.0085 41.0084 78.9826 41.1303 78.9306 41.2521Z" fill="#363832"/>
<path d="M98.1771 22.4011C98.1771 22.6796 98.0819 22.9059 97.8914 23.0799C97.701 23.2366 97.4672 23.3149 97.1901 23.3149H84.0215V23.6021C84.0215 24.6639 83.9436 25.7953 83.7877 26.9964C83.6319 28.1974 83.4154 29.3984 83.1384 30.5995C82.8786 31.7831 82.5756 32.9406 82.2293 34.072C81.9003 35.2034 81.554 36.2478 81.1903 37.2052C80.844 38.1625 80.4977 38.998 80.1514 39.7117C79.8051 40.4079 79.4934 40.9301 79.2163 41.2782C79.4414 42.0789 79.7098 42.8274 80.0215 43.5237C80.3332 44.2025 80.6795 44.803 81.0605 45.3252C81.4587 45.83 81.883 46.2303 82.3332 46.5262C82.7834 46.8222 83.2682 46.9701 83.7877 46.9701C84.3938 46.9701 84.9912 46.7177 85.5799 46.2129C86.1859 45.6907 86.7401 45.0815 87.2422 44.3853C87.7617 43.6716 88.2119 42.958 88.5928 42.2443C88.9911 41.5132 89.2768 40.9301 89.45 40.495C89.6231 40.0772 89.9262 39.8683 90.3591 39.8683C90.6534 39.8683 90.8872 39.9728 91.0603 40.1816C91.2508 40.3905 91.3461 40.6168 91.3461 40.8605C91.3461 40.9823 91.3201 41.1042 91.2681 41.226C91.2162 41.3479 91.0863 41.6264 90.8785 42.0615C90.688 42.4967 90.4283 43.0015 90.0993 43.5759C89.7876 44.1503 89.4153 44.7595 88.9824 45.4035C88.5669 46.0302 88.0907 46.6046 87.5539 47.1268C87.0344 47.649 86.4717 48.0841 85.8656 48.4322C85.2596 48.7804 84.6189 48.9544 83.9436 48.9544C82.7488 48.9544 81.6752 48.5628 80.7228 47.7795C79.7704 46.9962 78.9566 45.8996 78.2813 44.4897C77.6233 43.0798 77.1211 41.4088 76.7748 39.4767C76.4285 37.5446 76.2553 35.4297 76.2553 33.1321C76.2553 32.5577 76.264 31.8875 76.2813 31.1217C76.2986 30.3384 76.3333 29.5203 76.3852 28.6674C76.4371 27.7971 76.5151 26.9093 76.619 26.0042C76.7229 25.0817 76.8614 24.1852 77.0345 23.3149H67.71C67.4329 23.3149 67.1992 23.2366 67.0087 23.0799C66.8182 22.9059 66.723 22.6796 66.723 22.4011C66.723 22.1226 66.8182 21.905 67.0087 21.7484C67.1992 21.5743 67.4329 21.4873 67.71 21.4873H77.4761C77.6493 20.8606 77.8484 20.2862 78.0735 19.764C78.3159 19.2419 78.5843 18.7893 78.8787 18.4064C79.1904 18.0234 79.528 17.7275 79.8917 17.5186C80.2726 17.2923 80.6882 17.1792 81.1384 17.1792C81.5713 17.1792 81.9436 17.2923 82.2553 17.5186C82.5843 17.7275 82.8613 18.0234 83.0864 18.4064C83.3115 18.7893 83.4847 19.2419 83.6059 19.764C83.7444 20.2862 83.8483 20.8606 83.9176 21.4873H97.1901C97.4672 21.4873 97.701 21.5743 97.8914 21.7484C98.0819 21.905 98.1771 22.1226 98.1771 22.4011ZM78.6189 38.6673C79.1384 37.5185 79.6059 36.2826 80.0215 34.9598C80.4544 33.6195 80.818 32.2705 81.1124 30.9128C81.4241 29.5551 81.6579 28.2235 81.8137 26.918C81.9869 25.6126 82.0734 24.4115 82.0734 23.3149H79.0085C78.7661 24.3941 78.567 25.7344 78.4111 27.3358C78.2726 28.9198 78.2034 30.8519 78.2034 33.1321C78.2034 34.4028 78.238 35.4732 78.3073 36.3436C78.3765 37.1965 78.4804 37.971 78.6189 38.6673ZM81.0345 19.1374C80.8787 19.1374 80.6535 19.3115 80.3592 19.6596C80.0648 19.9903 79.7704 20.5995 79.4761 21.4873H81.9695C81.883 20.7562 81.7531 20.1818 81.5799 19.764C81.4241 19.3463 81.2423 19.1374 81.0345 19.1374Z" fill="#363832"/>
<path d="M93.7876 28.0407C93.7876 28.7022 93.5538 29.2679 93.0863 29.7379C92.6361 30.1904 92.082 30.4167 91.424 30.4167C90.766 30.4167 90.2032 30.1904 89.7357 29.7379C89.2855 29.2679 89.0604 28.7022 89.0604 28.0407C89.0604 27.71 89.121 27.4054 89.2422 27.1269C89.3634 26.831 89.5279 26.5786 89.7357 26.3697C89.9608 26.1435 90.2119 25.9694 90.4889 25.8475C90.7833 25.7257 91.095 25.6648 91.424 25.6648C91.753 25.6648 92.056 25.7257 92.3331 25.8475C92.6274 25.9694 92.8785 26.1435 93.0863 26.3697C93.3114 26.5786 93.4846 26.831 93.6058 27.1269C93.727 27.4054 93.7876 27.71 93.7876 28.0407ZM89.5798 43.3409C89.5798 40.8344 89.7357 38.3366 90.0474 35.8475C90.082 35.6038 90.1859 35.3949 90.3591 35.2208C90.5495 35.0294 90.7919 34.9336 91.0863 34.9336C91.3461 34.9336 91.5625 35.0381 91.7357 35.247C91.9088 35.4384 91.9954 35.6647 91.9954 35.9258C91.9954 36.0302 91.9694 36.3436 91.9175 36.8657C91.8828 37.3879 91.8309 38.0146 91.7616 38.7456C91.7097 39.4593 91.6577 40.2252 91.6058 41.0433C91.5712 41.8439 91.5538 42.5837 91.5538 43.2626C91.5538 44.1851 91.6404 44.9336 91.8136 45.508C92.0041 46.065 92.2378 46.5001 92.5149 46.8134C92.8092 47.1268 93.1123 47.3356 93.424 47.4401C93.7529 47.5445 94.0646 47.5967 94.359 47.5967C94.8438 47.5967 95.346 47.4227 95.8655 47.0745C96.3849 46.7264 96.9131 46.239 97.4499 45.6124C98.004 44.9858 98.5581 44.2373 99.1122 43.367C99.6663 42.4793 100.212 41.4958 100.749 40.4166C100.835 40.2426 100.956 40.112 101.112 40.025C101.268 39.9205 101.441 39.8683 101.632 39.8683C101.909 39.8683 102.134 39.9728 102.307 40.1816C102.497 40.3905 102.593 40.6168 102.593 40.8605C102.593 41.0346 102.558 41.1825 102.489 41.3044C102.281 41.7047 102.021 42.1921 101.71 42.7665C101.398 43.3409 101.043 43.9327 100.645 44.5419C100.246 45.1511 99.8048 45.7604 99.32 46.3696C98.8524 46.9614 98.3503 47.501 97.8135 47.9884C97.2767 48.4583 96.714 48.8413 96.1252 49.1372C95.5365 49.4331 94.9391 49.5811 94.333 49.5811C93.5538 49.5811 92.8698 49.4157 92.2811 49.085C91.6924 48.7542 91.1902 48.3104 90.7746 47.7534C90.3764 47.1964 90.0733 46.5437 89.8656 45.7952C89.6751 45.0293 89.5798 44.2112 89.5798 43.3409ZM92.3331 28.0407C92.3331 27.7971 92.2378 27.5882 92.0473 27.4141C91.8742 27.2226 91.6664 27.1269 91.424 27.1269C91.1815 27.1269 90.9738 27.2226 90.8006 27.4141C90.6274 27.5882 90.5409 27.7971 90.5409 28.0407C90.5409 28.2844 90.6274 28.4933 90.8006 28.6674C90.9738 28.8414 91.1815 28.9285 91.424 28.9285C91.6664 28.9285 91.8742 28.8414 92.0473 28.6674C92.2378 28.4933 92.3331 28.2844 92.3331 28.0407Z" fill="#363832"/>
<path d="M112.696 45.6646C112.264 45.6646 111.883 45.6298 111.554 45.5602C111.294 46.0824 110.982 46.5698 110.619 47.0223C110.255 47.4575 109.831 47.8404 109.346 48.1711C108.878 48.5019 108.35 48.763 107.761 48.9544C107.173 49.1459 106.532 49.2416 105.839 49.2416C105.026 49.2416 104.281 49.0937 103.606 48.7978C102.93 48.5193 102.342 48.1276 101.839 47.6228C101.337 47.1007 100.948 46.4827 100.671 45.7691C100.394 45.038 100.255 44.2373 100.255 43.367C100.255 42.253 100.454 41.2869 100.852 40.4688C101.251 39.6333 101.71 38.9458 102.229 38.4062C102.749 37.8492 103.268 37.4402 103.787 37.1791C104.307 36.9006 104.697 36.7613 104.956 36.7613C105.251 36.7613 105.467 36.8396 105.606 36.9963C105.761 37.1529 105.839 37.3618 105.839 37.6229C105.839 37.9188 105.744 38.1451 105.554 38.3018C105.381 38.441 105.155 38.5803 104.878 38.7195C104.601 38.8588 104.307 39.0589 103.995 39.32C103.684 39.5637 103.389 39.877 103.112 40.26C102.852 40.6429 102.636 41.0955 102.463 41.6177C102.29 42.1399 102.203 42.723 102.203 43.367C102.203 43.9414 102.29 44.481 102.463 44.9858C102.636 45.4732 102.887 45.8996 103.216 46.2651C103.545 46.6133 103.935 46.8918 104.385 47.1007C104.835 47.2921 105.337 47.3879 105.891 47.3879C106.878 47.3879 107.692 47.1616 108.333 46.709C108.991 46.239 109.493 45.6472 109.839 44.9336C108.818 44.394 107.978 43.6281 107.32 42.6359C106.662 41.6438 106.333 40.5298 106.333 39.2939C106.333 38.3018 106.567 37.4924 107.034 36.8657C107.519 36.2391 108.151 35.9258 108.93 35.9258C109.398 35.9258 109.839 36.0389 110.255 36.2652C110.67 36.4915 111.034 36.8483 111.346 37.3357C111.675 37.8231 111.935 38.4497 112.125 39.2156C112.315 39.9815 112.411 40.8953 112.411 41.9571C112.411 42.5141 112.341 43.0972 112.203 43.7064C112.307 43.7238 112.411 43.7325 112.515 43.7325C112.619 43.7325 112.731 43.7325 112.852 43.7325C113.441 43.7325 113.969 43.6629 114.437 43.5237C114.904 43.3844 115.328 43.1755 115.709 42.897C116.09 42.6185 116.428 42.2617 116.722 41.8265C117.034 41.3914 117.328 40.8866 117.605 40.3122C117.657 40.2078 117.77 40.112 117.943 40.025C118.116 39.9205 118.289 39.8683 118.463 39.8683C118.688 39.8683 118.895 39.9641 119.086 40.1555C119.294 40.3296 119.398 40.5646 119.398 40.8605C119.398 40.9997 119.363 41.1564 119.294 41.3305C119.224 41.4871 119.155 41.6351 119.086 41.7743C118.792 42.2965 118.445 42.8013 118.047 43.2887C117.666 43.7586 117.207 44.1764 116.67 44.5419C116.151 44.89 115.562 45.1686 114.904 45.3774C114.246 45.5863 113.51 45.682 112.696 45.6646ZM108.255 39.085C108.255 39.4158 108.298 39.7639 108.385 40.1294C108.471 40.495 108.601 40.8605 108.774 41.226C108.965 41.5741 109.19 41.9136 109.45 42.2443C109.727 42.5576 110.047 42.8274 110.411 43.0537C110.463 42.6882 110.489 42.3313 110.489 41.9832C110.489 41.5132 110.454 41.0346 110.385 40.5472C110.316 40.0598 110.212 39.6159 110.073 39.2156C109.952 38.7978 109.796 38.4671 109.606 38.2234C109.415 37.9623 109.19 37.8318 108.93 37.8318C108.826 37.8318 108.688 37.9101 108.515 38.0668C108.342 38.2234 108.255 38.5629 108.255 39.085Z" fill="#363832"/>
<path d="M123.32 46.1868C123.597 45.6124 123.917 44.9858 124.281 44.3069C124.644 43.6107 125.034 42.9144 125.45 42.2182C125.865 41.5045 126.298 40.7996 126.748 40.1033C127.216 39.4071 127.701 38.7456 128.203 38.119C128.705 37.5098 129.207 37.0746 129.709 36.8135C130.229 36.535 130.714 36.3958 131.164 36.3958C132.064 36.3958 132.731 36.7265 133.164 37.3879C133.597 38.0494 133.813 38.8675 133.813 39.8422C133.813 40.0685 133.796 40.347 133.761 40.6777C133.744 40.991 133.718 41.3305 133.683 41.696C133.666 42.0615 133.64 42.4358 133.605 42.8187C133.588 43.1842 133.579 43.5324 133.579 43.8631C133.579 44.2808 133.597 44.6812 133.631 45.0641C133.683 45.4471 133.77 45.7865 133.891 46.0824C134.012 46.3609 134.185 46.5872 134.41 46.7612C134.636 46.9179 134.93 46.9962 135.294 46.9962C135.952 46.9962 136.592 46.7438 137.216 46.239C137.839 45.7169 138.41 45.1076 138.93 44.4114C139.467 43.6977 139.926 42.9754 140.306 42.2443C140.705 41.5132 140.999 40.9214 141.19 40.4688C141.276 40.2774 141.397 40.1294 141.553 40.025C141.726 39.9205 141.908 39.8683 142.099 39.8683C142.393 39.8683 142.627 39.9815 142.8 40.2078C142.99 40.4166 143.086 40.6429 143.086 40.8866C143.086 41.0084 143.06 41.1303 143.008 41.2521C142.938 41.3914 142.8 41.6786 142.592 42.1137C142.384 42.5489 142.107 43.0537 141.761 43.6281C141.432 44.1851 141.042 44.7856 140.592 45.4296C140.142 46.0563 139.64 46.6307 139.086 47.1529C138.549 47.6751 137.96 48.1102 137.319 48.4583C136.696 48.8065 136.038 48.9805 135.345 48.9805C134.566 48.9805 133.934 48.8326 133.449 48.5367C132.965 48.2234 132.584 47.823 132.307 47.3356C132.03 46.8309 131.839 46.2826 131.735 45.6907C131.649 45.0815 131.605 44.4723 131.605 43.8631C131.605 43.602 131.614 43.3061 131.631 42.9754C131.666 42.6446 131.701 42.2965 131.735 41.931C131.787 41.5654 131.822 41.1999 131.839 40.8344C131.874 40.4688 131.891 40.1207 131.891 39.79C131.891 39.233 131.804 38.8588 131.631 38.6673C131.458 38.4584 131.302 38.354 131.164 38.354C130.887 38.354 130.566 38.5193 130.203 38.8501C129.856 39.1634 129.484 39.5811 129.086 40.1033C128.705 40.6255 128.307 41.2173 127.891 41.8788C127.493 42.5228 127.112 43.1668 126.748 43.8109C126.402 44.4549 126.073 45.0728 125.761 45.6646C125.467 46.239 125.233 46.7177 125.06 47.1007C124.714 47.8317 124.367 48.3191 124.021 48.5628C123.675 48.8239 123.32 48.9544 122.956 48.9544C122.454 48.9544 122.047 48.8065 121.735 48.5106C121.441 48.1973 121.294 47.7621 121.294 47.2051C121.294 47.0832 121.311 46.8483 121.346 46.5001C121.38 46.1346 121.424 45.7081 121.476 45.2208C121.527 44.716 121.579 44.1764 121.631 43.602C121.683 43.0276 121.735 42.4619 121.787 41.9049C121.839 41.3305 121.882 40.7996 121.917 40.3122C121.952 39.8248 121.969 39.4158 121.969 39.085C121.969 38.6499 121.952 38.2321 121.917 37.8318C121.882 37.4314 121.813 37.1878 121.709 37.1007C121.553 37.1529 121.276 37.4837 120.878 38.0929C120.48 38.6847 119.969 39.7378 119.346 41.2521C119.259 41.4436 119.129 41.5916 118.956 41.696C118.783 41.8004 118.601 41.8526 118.411 41.8526C118.116 41.8526 117.883 41.7569 117.709 41.5654C117.536 41.3566 117.45 41.1216 117.45 40.8605C117.45 40.7386 117.476 40.6081 117.528 40.4688C118.307 38.6064 119.034 37.24 119.709 36.3697C120.402 35.4819 121.086 35.0381 121.761 35.0381C122.16 35.0381 122.497 35.1425 122.774 35.3514C123.051 35.5429 123.268 35.804 123.424 36.1347C123.597 36.4654 123.718 36.8309 123.787 37.2313C123.874 37.6316 123.917 38.0407 123.917 38.4584C123.917 38.7717 123.891 39.2591 123.839 39.9205C123.805 40.582 123.753 41.2956 123.683 42.0615C123.614 42.81 123.545 43.5585 123.476 44.3069C123.424 45.0554 123.372 45.682 123.32 46.1868Z" fill="#363832"/>
</g>
<defs>
<linearGradient id="paint0_linear_629_12016" x1="79.6719" y1="-8.84424" x2="49.7154" y2="78.2695" gradientUnits="userSpaceOnUse">
<stop stop-color="#FFE7DB"/>
<stop offset="1" stop-color="#FFFAF8" stop-opacity="0"/>
</linearGradient>
<linearGradient id="paint1_linear_629_12016" x1="79.6719" y1="-8.84424" x2="49.7154" y2="78.2695" gradientUnits="userSpaceOnUse">
<stop stop-color="#FFE7DB"/>
<stop offset="1" stop-color="#FFFAF8" stop-opacity="0"/>
</linearGradient>
<linearGradient id="paint2_linear_629_12016" x1="79.6719" y1="-8.84424" x2="49.7154" y2="78.2695" gradientUnits="userSpaceOnUse">
<stop stop-color="#FFE7DB"/>
<stop offset="1" stop-color="#FFFAF8" stop-opacity="0"/>
</linearGradient>
<linearGradient id="paint3_linear_629_12016" x1="79.6719" y1="-8.84424" x2="49.7154" y2="78.2695" gradientUnits="userSpaceOnUse">
<stop stop-color="#FFE7DB"/>
<stop offset="1" stop-color="#FFFAF8" stop-opacity="0"/>
</linearGradient>
<linearGradient id="paint4_linear_629_12016" x1="79.6719" y1="-8.84424" x2="49.7154" y2="78.2695" gradientUnits="userSpaceOnUse">
<stop stop-color="#FFE7DB"/>
<stop offset="1" stop-color="#FFFAF8" stop-opacity="0"/>
</linearGradient>
<linearGradient id="paint5_linear_629_12016" x1="79.6719" y1="-8.84424" x2="49.7154" y2="78.2695" gradientUnits="userSpaceOnUse">
<stop stop-color="#FFE7DB"/>
<stop offset="1" stop-color="#FFFAF8" stop-opacity="0"/>
</linearGradient>
<linearGradient id="paint6_linear_629_12016" x1="79.6719" y1="-8.84424" x2="49.7154" y2="78.2695" gradientUnits="userSpaceOnUse">
<stop stop-color="#FFE7DB"/>
<stop offset="1" stop-color="#FFFAF8" stop-opacity="0"/>
</linearGradient>
<linearGradient id="paint7_linear_629_12016" x1="79.6719" y1="-8.84424" x2="49.7154" y2="78.2695" gradientUnits="userSpaceOnUse">
<stop stop-color="#FFE7DB"/>
<stop offset="1" stop-color="#FFFAF8" stop-opacity="0"/>
</linearGradient>
<linearGradient id="paint8_linear_629_12016" x1="79.6719" y1="-8.84424" x2="49.7154" y2="78.2695" gradientUnits="userSpaceOnUse">
<stop stop-color="#FFE7DB"/>
<stop offset="1" stop-color="#FFFAF8" stop-opacity="0"/>
</linearGradient>
<linearGradient id="paint9_linear_629_12016" x1="79.6719" y1="-8.84424" x2="49.7154" y2="78.2695" gradientUnits="userSpaceOnUse">
<stop stop-color="#FFE7DB"/>
<stop offset="1" stop-color="#FFFAF8" stop-opacity="0"/>
</linearGradient>
<linearGradient id="paint10_linear_629_12016" x1="79.6719" y1="-8.84424" x2="49.7154" y2="78.2695" gradientUnits="userSpaceOnUse">
<stop stop-color="#FFE7DB"/>
<stop offset="1" stop-color="#FFFAF8" stop-opacity="0"/>
</linearGradient>
<linearGradient id="paint11_linear_629_12016" x1="79.6719" y1="-8.84424" x2="49.7154" y2="78.2695" gradientUnits="userSpaceOnUse">
<stop stop-color="#FFE7DB"/>
<stop offset="1" stop-color="#FFFAF8" stop-opacity="0"/>
</linearGradient>
<linearGradient id="paint12_linear_629_12016" x1="79.6719" y1="-8.84424" x2="49.7154" y2="78.2695" gradientUnits="userSpaceOnUse">
<stop stop-color="#FFE7DB"/>
<stop offset="1" stop-color="#FFFAF8" stop-opacity="0"/>
</linearGradient>
<linearGradient id="paint13_linear_629_12016" x1="79.6719" y1="-8.84424" x2="49.7154" y2="78.2695" gradientUnits="userSpaceOnUse">
<stop stop-color="#FFE7DB"/>
<stop offset="1" stop-color="#FFFAF8" stop-opacity="0"/>
</linearGradient>
</defs>
</svg>
